<svg width="17" height="20" viewBox="0 0 17 20" fill="none" xmlns="http://www.w3.org/2000/svg">
<path d="M16.5 3.75002H15.25V18.125C15.25 18.3854 15.2012 18.6296 15.1035 18.8574C15.0059 19.0853 14.8724 19.2839 14.7031 19.4531C14.5339 19.6224 14.3353 19.7559 14.1074 19.8535C13.8796 19.9512 13.6354 20 13.375 20H3.375C3.11458 20 2.87044 19.9512 2.64258 19.8535C2.41471 19.7559 2.21615 19.6224 2.04688 19.4531C1.8776 19.2839 1.74414 19.0853 1.64648 18.8574C1.54883 18.6296 1.5 18.3854 1.5 18.125V3.75002H0.25V2.50002H5.25V1.25002C5.25 1.07424 5.28255 0.911479 5.34766 0.761739C5.41276 0.612 5.50065 0.481791 5.61133 0.371114C5.72201 0.260437 5.85547 0.169291 6.01172 0.0976766C6.16797 0.026062 6.33073 -0.00649007 6.5 2.03452e-05H10.25C10.4258 2.03452e-05 10.5885 0.0325724 10.7383 0.0976766C10.888 0.162781 11.0182 0.250671 11.1289 0.361348C11.2396 0.472026 11.3307 0.605489 11.4023 0.761739C11.474 0.917989 11.5065 1.08075 11.5 1.25002V2.50002H16.5V3.75002ZM6.5 2.50002H10.25V1.25002H6.5V2.50002ZM14 3.75002H2.75V18.125C2.75 18.2943 2.81185 18.4408 2.93555 18.5645C3.05924 18.6882 3.20573 18.75 3.375 18.75H13.375C13.5443 18.75 13.6908 18.6882 13.8145 18.5645C13.9382 18.4408 14 18.2943 14 18.125V3.75002ZM6.5 16.25H5.25V6.25002H6.5V16.25ZM9 16.25H7.75V6.25002H9V16.25ZM11.5 16.25H10.25V6.25002H11.5V16.25Z" fill="red"/>
</svg>
