<svg width="89" height="38" viewBox="0 0 89 38" fill="none" xmlns="http://www.w3.org/2000/svg">
<g filter="url(#filter0_d_47_188)">
<rect x="4" width="81" height="30" rx="10" fill="#3B81F6"/>
<path d="M37.82 12.74V13.46H42.65V12.74H37.82ZM40.81 10.61V18.78C40.81 18.96 40.75 19.02 40.56 19.02C40.36 19.03 39.74 19.03 39.05 19.01C39.17 19.24 39.29 19.59 39.33 19.8C40.19 19.81 40.78 19.78 41.11 19.66C41.44 19.53 41.57 19.3 41.57 18.77V10.61H40.81ZM38.04 14.79C38.57 15.55 39.11 16.58 39.31 17.23L39.98 16.88C39.78 16.23 39.21 15.23 38.66 14.49L38.04 14.79ZM33.52 12.75V13.47H37.53V12.75H33.52ZM35.29 10.6V19.79H36.02V10.6H35.29ZM35.25 13.19C34.9 14.66 34.09 16.36 33.28 17.26C33.41 17.44 33.61 17.74 33.69 17.95C34.54 16.95 35.36 15 35.76 13.37L35.25 13.19ZM35.97 14.33L35.57 14.72C35.92 15.12 36.8 16.2 37.09 16.68L37.58 16.05C37.34 15.77 36.28 14.61 35.97 14.33ZM47.55 12.25L47.56 13.06C48.65 13.18 50.59 13.18 51.66 13.06V12.25C50.67 12.4 48.64 12.44 47.55 12.25ZM47.94 16.33L47.22 16.26C47.11 16.74 47.06 17.1 47.06 17.43C47.06 18.37 47.81 18.93 49.48 18.93C50.52 18.93 51.36 18.85 51.98 18.72L51.96 17.88C51.16 18.07 50.38 18.15 49.49 18.15C48.12 18.15 47.8 17.7 47.8 17.24C47.8 16.97 47.85 16.69 47.94 16.33ZM45.65 11.48L44.76 11.41C44.75 11.63 44.72 11.88 44.69 12.11C44.57 12.94 44.24 14.65 44.24 16.12C44.24 17.48 44.41 18.63 44.61 19.34L45.32 19.29C45.31 19.18 45.3 19.04 45.29 18.94C45.29 18.82 45.31 18.63 45.34 18.49C45.43 18.01 45.8 16.96 46.05 16.25L45.63 15.92C45.46 16.33 45.23 16.93 45.06 17.38C45 16.89 44.97 16.47 44.97 15.99C44.97 14.86 45.28 13.08 45.47 12.15C45.51 11.97 45.59 11.65 45.65 11.48ZM55.27 11.21V11.97H58.1V11.21H55.27ZM57.72 11.21C57.72 13.09 58.05 17.35 62.05 19.77C62.19 19.59 62.49 19.27 62.66 19.14C58.71 16.8 58.49 13 58.49 11.21H57.72ZM57.44 13.17C56.83 16 55.58 18.02 53.36 19.18C53.56 19.32 53.9 19.63 54.04 19.79C56.25 18.49 57.57 16.38 58.29 13.33L57.44 13.17ZM65.38 11.64L65.4 12.46C65.62 12.43 65.84 12.42 66.07 12.4C66.59 12.37 68.59 12.29 69.12 12.26C68.62 12.71 67.36 13.76 66.8 14.22C66.23 14.71 64.94 15.79 64.11 16.47L64.69 17.05C65.95 15.76 66.85 15.06 68.51 15.06C69.82 15.06 70.76 15.79 70.76 16.78C70.76 18.03 69.69 18.73 67.99 18.73C67.2 18.73 66.65 18.44 66.65 17.95C66.65 17.6 67 17.32 67.46 17.32C68.26 17.32 68.75 17.93 68.81 18.78L69.53 18.66C69.46 17.65 68.79 16.71 67.46 16.71C66.54 16.71 65.92 17.33 65.92 18.01C65.92 18.85 66.75 19.44 68.11 19.44C70.23 19.44 71.56 18.39 71.56 16.78C71.56 15.43 70.37 14.44 68.71 14.44C68.26 14.44 67.78 14.49 67.32 14.64C68.1 14 69.46 12.83 69.95 12.45C70.14 12.3 70.34 12.17 70.52 12.05L70.06 11.46C69.95 11.5 69.81 11.52 69.51 11.55C68.98 11.6 66.61 11.67 66.08 11.67C65.88 11.67 65.6 11.66 65.38 11.64Z" fill="white"/>
<path d="M37.82 12.74V12.49H37.57V12.74H37.82ZM37.82 13.46H37.57V13.71H37.82V13.46ZM42.65 13.46V13.71H42.9V13.46H42.65ZM42.65 12.74H42.9V12.49H42.65V12.74ZM40.81 10.61V10.36H40.56V10.61H40.81ZM40.56 19.02V18.7697L40.5475 18.7703L40.56 19.02ZM39.05 19.01L39.0572 18.7601L38.6312 18.7478L38.8284 19.1256L39.05 19.01ZM39.33 19.8L39.0844 19.8468L39.1227 20.0476L39.3271 20.05L39.33 19.8ZM41.11 19.66L41.1955 19.895L41.2016 19.8926L41.11 19.66ZM41.57 10.61H41.82V10.36H41.57V10.61ZM38.04 14.79L37.9311 14.565L37.6673 14.6926L37.8349 14.933L38.04 14.79ZM39.31 17.23L39.0711 17.3035L39.1594 17.5907L39.4258 17.4516L39.31 17.23ZM39.98 16.88L40.0958 17.1016L40.2801 17.0053L40.2189 16.8065L39.98 16.88ZM38.66 14.49L38.8606 14.3409L38.7373 14.1749L38.5511 14.265L38.66 14.49ZM33.52 12.75V12.5H33.27V12.75H33.52ZM33.52 13.47H33.27V13.72H33.52V13.47ZM37.53 13.47V13.72H37.78V13.47H37.53ZM37.53 12.75H37.78V12.5H37.53V12.75ZM35.29 10.6V10.35H35.04V10.6H35.29ZM35.29 19.79H35.04V20.04H35.29V19.79ZM36.02 19.79V20.04H36.27V19.79H36.02ZM36.02 10.6H36.27V10.35H36.02V10.6ZM35.25 13.19L35.3332 12.9543L35.0712 12.8618L35.0068 13.1321L35.25 13.19ZM33.28 17.26L33.0942 17.0928L32.9592 17.2428L33.0773 17.4064L33.28 17.26ZM33.69 17.95L33.4564 18.039L33.6068 18.4339L33.8805 18.1119L33.69 17.95ZM35.76 13.37L36.0028 13.4296L36.0568 13.2096L35.8432 13.1343L35.76 13.37ZM35.97 14.33L36.1376 14.1445L35.9635 13.9872L35.7955 14.151L35.97 14.33ZM35.57 14.72L35.3955 14.541L35.2259 14.7064L35.3819 14.8846L35.57 14.72ZM37.09 16.68L36.876 16.8093L37.0641 17.1205L37.2873 16.8335L37.09 16.68ZM37.58 16.05L37.7773 16.2035L37.9027 16.0423L37.7698 15.8873L37.58 16.05ZM37.57 12.74V13.46H38.07V12.74H37.57ZM37.82 13.71H42.65V13.21H37.82V13.71ZM42.9 13.46V12.74H42.4V13.46H42.9ZM42.65 12.49H37.82V12.99H42.65V12.49ZM40.56 10.61V18.78H41.06V10.61H40.56ZM40.56 18.78C40.56 18.7958 40.5593 18.8073 40.5585 18.8155C40.5576 18.8237 40.5567 18.8269 40.5568 18.8265C40.5569 18.826 40.5584 18.8209 40.5626 18.8134C40.567 18.8054 40.5735 18.7964 40.5824 18.7878C40.5912 18.7793 40.6 18.7735 40.6069 18.7699C40.6135 18.7665 40.6172 18.7656 40.6161 18.7659C40.6149 18.7662 40.6101 18.7673 40.6003 18.7683C40.5906 18.7693 40.5774 18.77 40.56 18.77V19.27C40.6661 19.27 40.8167 19.2569 40.9301 19.1472C41.0461 19.0349 41.06 18.8836 41.06 18.78H40.56ZM40.5475 18.7703C40.3582 18.7798 39.7467 18.7801 39.0572 18.7601L39.0428 19.2599C39.7333 19.2799 40.3618 19.2802 40.5725 19.2697L40.5475 18.7703ZM38.8284 19.1256C38.9375 19.3349 39.0492 19.6617 39.0844 19.8468L39.5756 19.7532C39.5308 19.5183 39.4025 19.1451 39.2716 18.8944L38.8284 19.1256ZM39.3271 20.05C39.7595 20.055 40.1301 20.0501 40.4366 20.0281C40.7397 20.0064 40.9974 19.967 41.1954 19.8949L41.0246 19.4251C40.8926 19.473 40.6903 19.5086 40.4009 19.5294C40.1149 19.5499 39.7605 19.555 39.3329 19.55L39.3271 20.05ZM41.2016 19.8926C41.4073 19.8116 41.5766 19.6872 41.6849 19.4815C41.7869 19.2879 41.82 19.0493 41.82 18.77H41.32C41.32 19.0207 41.2881 19.1621 41.2426 19.2485C41.2034 19.3228 41.1427 19.3784 41.0184 19.4274L41.2016 19.8926ZM41.82 18.77V10.61H41.32V18.77H41.82ZM41.57 10.36H40.81V10.86H41.57V10.36ZM37.8349 14.933C38.3558 15.6799 38.8811 16.6863 39.0711 17.3035L39.5489 17.1565C39.3389 16.4737 38.7842 15.4201 38.2451 14.647L37.8349 14.933ZM39.4258 17.4516L40.0958 17.1016L39.8642 16.6584L39.1942 17.0084L39.4258 17.4516ZM40.2189 16.8065C40.0071 16.1179 39.4187 15.0917 38.8606 14.3409L38.4594 14.6391C39.0013 15.3683 39.5529 16.3421 39.7411 16.9535L40.2189 16.8065ZM38.5511 14.265L37.9311 14.565L38.1489 15.015L38.7689 14.715L38.5511 14.265ZM33.27 12.75V13.47H33.77V12.75H33.27ZM33.52 13.72H37.53V13.22H33.52V13.72ZM37.78 13.47V12.75H37.28V13.47H37.78ZM37.53 12.5H33.52V13H37.53V12.5ZM35.04 10.6V19.79H35.54V10.6H35.04ZM35.29 20.04H36.02V19.54H35.29V20.04ZM36.27 19.79V10.6H35.77V19.79H36.27ZM36.02 10.35H35.29V10.85H36.02V10.35ZM35.0068 13.1321C34.6636 14.5737 33.8689 16.232 33.0942 17.0928L33.4658 17.4272C34.3112 16.488 35.1364 14.7463 35.4932 13.2479L35.0068 13.1321ZM33.0773 17.4064C33.2083 17.5878 33.3895 17.8635 33.4564 18.039L33.9236 17.861C33.8305 17.6165 33.6117 17.2922 33.4827 17.1136L33.0773 17.4064ZM33.8805 18.1119C34.7666 17.0695 35.5986 15.0765 36.0028 13.4296L35.5172 13.3104C35.1214 14.9235 34.3134 16.8305 33.4995 17.7881L33.8805 18.1119ZM35.8432 13.1343L35.3332 12.9543L35.1668 13.4257L35.6768 13.6057L35.8432 13.1343ZM35.7955 14.151L35.3955 14.541L35.7445 14.899L36.1445 14.509L35.7955 14.151ZM35.3819 14.8846C35.7321 15.2849 36.5986 16.3502 36.876 16.8093L37.304 16.5507C37.0014 16.0498 36.1079 14.9551 35.7581 14.5554L35.3819 14.8846ZM37.2873 16.8335L37.7773 16.2035L37.3827 15.8965L36.8927 16.5265L37.2873 16.8335ZM37.7698 15.8873C37.5293 15.6067 36.4604 14.4361 36.1376 14.1445L35.8024 14.5155C36.0996 14.7839 37.1507 15.9333 37.3902 16.2127L37.7698 15.8873ZM47.55 12.25L47.5929 12.0037L47.2963 11.952L47.3 12.2531L47.55 12.25ZM47.56 13.06L47.31 13.0631L47.3128 13.2843L47.5326 13.3085L47.56 13.06ZM51.66 13.06L51.6879 13.3084L51.91 13.2835V13.06H51.66ZM51.66 12.25H51.91V11.9593L51.6225 12.0028L51.66 12.25ZM47.94 16.33L48.1825 16.3906L48.2529 16.1092L47.9642 16.0812L47.94 16.33ZM47.22 16.26L47.2442 16.0112L47.0254 15.9899L46.9763 16.2042L47.22 16.26ZM51.98 18.72L52.0313 18.9647L52.2349 18.922L52.2299 18.714L51.98 18.72ZM51.96 17.88L52.2099 17.874L52.2026 17.5654L51.9022 17.6368L51.96 17.88ZM45.65 11.48L45.8857 11.5632L45.9941 11.2563L45.6696 11.2308L45.65 11.48ZM44.76 11.41L44.7796 11.1608L44.522 11.1405L44.5103 11.3986L44.76 11.41ZM44.69 12.11L44.9375 12.1458L44.9379 12.1423L44.69 12.11ZM44.61 19.34L44.3694 19.4078L44.4245 19.6037L44.6276 19.5894L44.61 19.34ZM45.32 19.29L45.3376 19.5394L45.5921 19.5215L45.569 19.2674L45.32 19.29ZM45.29 18.94H45.04V18.9525L45.0412 18.9649L45.29 18.94ZM45.34 18.49L45.5845 18.5424L45.5857 18.5361L45.34 18.49ZM46.05 16.25L46.2858 16.333L46.3453 16.1641L46.2045 16.0534L46.05 16.25ZM45.63 15.92L45.7845 15.7234L45.5253 15.5198L45.3991 15.8242L45.63 15.92ZM45.06 17.38L44.8119 17.4104L45.2939 17.4684L45.06 17.38ZM45.47 12.15L45.2259 12.0958L45.2251 12.1L45.47 12.15ZM47.3 12.2531L47.31 13.0631L47.81 13.0569L47.8 12.2469L47.3 12.2531ZM47.5326 13.3085C48.6407 13.4305 50.5992 13.4305 51.6879 13.3084L51.6321 12.8116C50.5808 12.9295 48.6593 12.9295 47.5874 12.8115L47.5326 13.3085ZM51.91 13.06V12.25H51.41V13.06H51.91ZM51.6225 12.0028C50.653 12.1497 48.6508 12.1881 47.5929 12.0037L47.5071 12.4963C48.6292 12.6919 50.687 12.6503 51.6975 12.4972L51.6225 12.0028ZM47.9642 16.0812L47.2442 16.0112L47.1958 16.5088L47.9158 16.5788L47.9642 16.0812ZM46.9763 16.2042C46.8641 16.6939 46.81 17.0741 46.81 17.43H47.31C47.31 17.1259 47.3559 16.7861 47.4637 16.3158L46.9763 16.2042ZM46.81 17.43C46.81 17.9784 47.0352 18.4352 47.5075 18.7421C47.9626 19.0379 48.6244 19.18 49.48 19.18V18.68C48.6656 18.68 48.1174 18.5421 47.78 18.3229C47.4598 18.1148 47.31 17.8216 47.31 17.43H46.81ZM49.48 19.18C50.5312 19.18 51.3894 19.0993 52.0313 18.9647L51.9287 18.4753C51.3306 18.6007 50.5088 18.68 49.48 18.68V19.18ZM52.2299 18.714L52.2099 17.874L51.7101 17.886L51.7301 18.726L52.2299 18.714ZM51.9022 17.6368C51.1241 17.8216 50.3638 17.9 49.49 17.9V18.4C50.3962 18.4 51.1959 18.3184 52.0178 18.1232L51.9022 17.6368ZM49.49 17.9C48.8238 17.9 48.4613 17.789 48.2713 17.6604C48.1007 17.545 48.05 17.4025 48.05 17.24H47.55C47.55 17.5375 47.6593 17.85 47.9912 18.0746C48.3037 18.286 48.7862 18.4 49.49 18.4V17.9ZM48.05 17.24C48.05 17.0007 48.0941 16.7442 48.1825 16.3906L47.6975 16.2694C47.6059 16.6358 47.55 16.9393 47.55 17.24H48.05ZM45.6696 11.2308L44.7796 11.1608L44.7404 11.6592L45.6304 11.7292L45.6696 11.2308ZM44.5103 11.3986C44.5008 11.607 44.4721 11.8477 44.4421 12.0777L44.9379 12.1423C44.9679 11.9123 44.9992 11.653 45.0097 11.4214L44.5103 11.3986ZM44.4426 12.0742C44.3253 12.8857 43.99 14.6262 43.99 16.12H44.49C44.49 14.6738 44.8147 12.9943 44.9374 12.1458L44.4426 12.0742ZM43.99 16.12C43.99 17.4978 44.1619 18.6713 44.3694 19.4078L44.8506 19.2722C44.6581 18.5887 44.49 17.4622 44.49 16.12H43.99ZM44.6276 19.5894L45.3376 19.5394L45.3024 19.0406L44.5924 19.0906L44.6276 19.5894ZM45.569 19.2674C45.5599 19.1681 45.5486 19.0135 45.5388 18.9151L45.0412 18.9649C45.0514 19.0665 45.0601 19.1919 45.071 19.3126L45.569 19.2674ZM45.54 18.94C45.54 18.8387 45.5579 18.6663 45.5845 18.5424L45.0955 18.4376C45.0621 18.5937 45.04 18.8013 45.04 18.94H45.54ZM45.5857 18.5361C45.6712 18.0802 46.0317 17.0547 46.2858 16.333L45.8142 16.167C45.5683 16.8653 45.1888 17.9398 45.0943 18.4439L45.5857 18.5361ZM46.2045 16.0534L45.7845 15.7234L45.4755 16.1166L45.8955 16.4466L46.2045 16.0534ZM45.3991 15.8242C45.2274 16.2383 44.9961 16.8417 44.8261 17.2916L45.2939 17.4684C45.4639 17.0183 45.6926 16.4217 45.8609 16.0158L45.3991 15.8242ZM45.3081 17.3496C45.2492 16.8679 45.22 16.4582 45.22 15.99H44.72C44.72 16.4818 44.7508 16.9121 44.8119 17.4104L45.3081 17.3496ZM45.22 15.99C45.22 14.888 45.5249 13.1304 45.7149 12.2L45.2251 12.1C45.0351 13.0296 44.72 14.832 44.72 15.99H45.22ZM45.714 12.2042C45.7538 12.0255 45.8311 11.718 45.8857 11.5632L45.4143 11.3968C45.3489 11.582 45.2662 11.9145 45.226 12.0958L45.714 12.2042ZM55.27 11.21V10.96H55.02V11.21H55.27ZM55.27 11.97H55.02V12.22H55.27V11.97ZM58.1 11.97V12.22H58.35V11.97H58.1ZM58.1 11.21H58.35V10.96H58.1V11.21ZM57.72 11.21V10.96H57.47V11.21H57.72ZM62.05 19.77L61.9206 19.9839L62.1108 20.099L62.2473 19.9235L62.05 19.77ZM62.66 19.14L62.8119 19.3386L63.106 19.1136L62.7874 18.9249L62.66 19.14ZM58.49 11.21H58.74V10.96H58.49V11.21ZM57.44 13.17L57.4862 12.9243L57.2469 12.8793L57.1956 13.1173L57.44 13.17ZM53.36 19.18L53.2442 18.9584L52.8797 19.1489L53.2166 19.3848L53.36 19.18ZM54.04 19.79L53.8519 19.9546L53.9882 20.1105L54.1668 20.0055L54.04 19.79ZM58.29 13.33L58.5333 13.3874L58.5934 13.1327L58.3362 13.0843L58.29 13.33ZM55.02 11.21V11.97H55.52V11.21H55.02ZM55.27 12.22H58.1V11.72H55.27V12.22ZM58.35 11.97V11.21H57.85V11.97H58.35ZM58.1 10.96H55.27V11.46H58.1V10.96ZM57.47 11.21C57.47 13.1056 57.7999 17.4909 61.9206 19.9839L62.1794 19.5561C58.3001 17.2091 57.97 13.0744 57.97 11.21H57.47ZM62.2473 19.9235C62.38 19.7529 62.665 19.4509 62.8119 19.3386L62.5081 18.9414C62.315 19.0891 62 19.4271 61.8527 19.6165L62.2473 19.9235ZM62.7874 18.9249C58.9586 16.6567 58.74 12.9813 58.74 11.21H58.24C58.24 13.0187 58.4614 16.9433 62.5326 19.3551L62.7874 18.9249ZM58.49 10.96H57.72V11.46H58.49V10.96ZM57.1956 13.1173C56.5959 15.8996 55.3787 17.8431 53.2442 18.9584L53.4758 19.4016C55.7813 18.1969 57.0641 16.1004 57.6844 13.2227L57.1956 13.1173ZM53.2166 19.3848C53.3995 19.5128 53.7245 19.8091 53.8519 19.9546L54.2281 19.6254C54.0755 19.4509 53.7205 19.1272 53.5034 18.9752L53.2166 19.3848ZM54.1668 20.0055C56.4527 18.6608 57.8029 16.4815 58.5333 13.3874L58.0467 13.2726C57.3371 16.2785 56.0473 18.3192 53.9132 19.5745L54.1668 20.0055ZM58.3362 13.0843L57.4862 12.9243L57.3938 13.4157L58.2438 13.5757L58.3362 13.0843ZM65.38 11.64L65.4026 11.391L65.1232 11.3656L65.1301 11.6461L65.38 11.64ZM65.4 12.46L65.1501 12.4661L65.1569 12.7455L65.4338 12.7077L65.4 12.46ZM66.07 12.4L66.0556 12.1503L66.0483 12.1509L66.07 12.4ZM69.12 12.26L69.2872 12.4458L69.8157 11.9702L69.1059 12.0104L69.12 12.26ZM66.8 14.22L66.6413 14.0268L66.637 14.0304L66.8 14.22ZM64.11 16.47L63.9516 16.2766L63.738 16.4516L63.9332 16.6468L64.11 16.47ZM64.69 17.05L64.5132 17.2268L64.6921 17.4056L64.8688 17.2247L64.69 17.05ZM68.81 18.78L68.5606 18.7976L68.58 19.0718L68.8511 19.0266L68.81 18.78ZM69.53 18.66L69.5711 18.9066L69.7951 18.8693L69.7794 18.6427L69.53 18.66ZM67.32 14.64L67.1614 14.4467L67.3975 14.8777L67.32 14.64ZM69.95 12.45L70.1032 12.6476L70.1049 12.6462L69.95 12.45ZM70.52 12.05L70.6587 12.258L70.8827 12.1086L70.7172 11.8963L70.52 12.05ZM70.06 11.46L70.2572 11.3063L70.1454 11.1629L69.9746 11.2251L70.06 11.46ZM69.51 11.55L69.5335 11.7989L69.5349 11.7988L69.51 11.55ZM65.1301 11.6461L65.1501 12.4661L65.6499 12.4539L65.6299 11.6339L65.1301 11.6461ZM65.4338 12.7077C65.6462 12.6787 65.8476 12.6703 66.0917 12.6491L66.0483 12.1509C65.8324 12.1697 65.5938 12.1813 65.3662 12.2123L65.4338 12.7077ZM66.0844 12.6496C66.3421 12.6347 66.9696 12.6073 67.6021 12.5798C68.2322 12.5523 68.867 12.5247 69.1341 12.5096L69.1059 12.0104C68.843 12.0253 68.2128 12.0527 67.5804 12.0802C66.9504 12.1077 66.3179 12.1353 66.0556 12.1504L66.0844 12.6496ZM68.9528 12.0742C68.4576 12.5198 67.202 13.5663 66.6413 14.0268L66.9587 14.4132C67.518 13.9537 68.7824 12.9002 69.2872 12.4458L68.9528 12.0742ZM66.637 14.0304C66.0689 14.5188 64.7805 15.5975 63.9516 16.2766L64.2684 16.6634C65.0995 15.9825 66.3911 14.9012 66.963 14.4096L66.637 14.0304ZM63.9332 16.6468L64.5132 17.2268L64.8668 16.8732L64.2868 16.2932L63.9332 16.6468ZM64.8688 17.2247C65.4971 16.5814 66.0165 16.1061 66.5738 15.7885C67.1231 15.4754 67.7199 15.31 68.51 15.31V14.81C67.6401 14.81 66.9569 14.9946 66.3262 15.354C65.7035 15.7089 65.1429 16.2286 64.5112 16.8753L64.8688 17.2247ZM68.51 15.31C69.7473 15.31 70.51 15.9854 70.51 16.78H71.01C71.01 15.5946 69.8927 14.81 68.51 14.81V15.31ZM70.51 16.78C70.51 17.3226 70.283 17.7333 69.8705 18.018C69.4469 18.3103 68.8106 18.48 67.99 18.48V18.98C68.8694 18.98 69.6181 18.7997 70.1545 18.4295C70.702 18.0517 71.01 17.4874 71.01 16.78H70.51ZM67.99 18.48C67.6207 18.48 67.3329 18.4115 67.1469 18.3062C66.9682 18.205 66.9 18.0833 66.9 17.95H66.4C66.4 18.3067 66.6068 18.575 66.9006 18.7413C67.1871 18.9035 67.5693 18.98 67.99 18.98V18.48ZM66.9 17.95C66.9 17.7912 67.0781 17.57 67.46 17.57V17.07C66.9219 17.07 66.4 17.4088 66.4 17.95H66.9ZM67.46 17.57C67.7907 17.57 68.0445 17.6935 68.2256 17.8973C68.4109 18.1057 68.5335 18.414 68.5606 18.7976L69.0594 18.7624C69.0265 18.296 68.8741 17.8743 68.5994 17.5652C68.3205 17.2515 67.9293 17.07 67.46 17.07V17.57ZM68.8511 19.0266L69.5711 18.9066L69.4889 18.4134L68.7689 18.5334L68.8511 19.0266ZM69.7794 18.6427C69.7411 18.0902 69.538 17.5446 69.1489 17.1342C68.7559 16.7197 68.1887 16.46 67.46 16.46V16.96C68.0613 16.96 68.4941 17.1703 68.7861 17.4783C69.082 17.7904 69.2489 18.2198 69.2806 18.6773L69.7794 18.6427ZM67.46 16.46C66.4304 16.46 65.67 17.1651 65.67 18.01H66.17C66.17 17.4949 66.6496 16.96 67.46 16.96V16.46ZM65.67 18.01C65.67 18.5239 65.9283 18.955 66.366 19.2478C66.7969 19.536 67.3976 19.69 68.11 19.69V19.19C67.4624 19.19 66.9681 19.049 66.644 18.8322C66.3267 18.62 66.17 18.3361 66.17 18.01H65.67ZM68.11 19.69C69.2084 19.69 70.1301 19.4182 70.7833 18.9112C71.4427 18.3994 71.81 17.6611 71.81 16.78H71.31C71.31 17.5089 71.0123 18.1006 70.4767 18.5163C69.9349 18.9368 69.1316 19.19 68.11 19.19V19.69ZM71.81 16.78C71.81 15.2489 70.4607 14.19 68.71 14.19V14.69C70.2793 14.69 71.31 15.6111 71.31 16.78H71.81ZM68.71 14.19C68.2427 14.19 67.7348 14.2418 67.2425 14.4023L67.3975 14.8777C67.8252 14.7382 68.2773 14.69 68.71 14.69V14.19ZM67.4786 14.8333C68.2702 14.1837 69.6153 13.026 70.1032 12.6476L69.7968 12.2524C69.3047 12.634 67.9298 13.8163 67.1614 14.4467L67.4786 14.8333ZM70.1049 12.6462C70.2851 12.5039 70.475 12.3805 70.6587 12.258L70.3813 11.842C70.205 11.9595 69.9949 12.0961 69.7951 12.2538L70.1049 12.6462ZM70.7172 11.8963L70.2572 11.3063L69.8628 11.6137L70.3228 12.2037L70.7172 11.8963ZM69.9746 11.2251C69.8994 11.2524 69.7924 11.2705 69.4851 11.3012L69.5349 11.7988C69.8276 11.7695 70.0006 11.7476 70.1454 11.6949L69.9746 11.2251ZM69.4865 11.3011C68.9684 11.35 66.6077 11.42 66.08 11.42V11.92C66.6124 11.92 68.9917 11.85 69.5335 11.7989L69.4865 11.3011ZM66.08 11.42C65.886 11.42 65.6137 11.4102 65.4026 11.391L65.3574 11.889C65.5863 11.9098 65.874 11.92 66.08 11.92V11.42Z" fill="white"/>
<path d="M16.6422 6.07473C16.7153 6.026 16.8011 6 16.8889 6C16.9767 6 17.0625 6.026 17.1356 6.07473L19.8022 7.8525C19.8631 7.8931 19.913 7.94809 19.9475 8.0126C19.982 8.0771 20 8.14913 20 8.22228V11.7778C20 11.8957 19.9532 12.0087 19.8698 12.0921C19.7865 12.1754 19.6734 12.2223 19.5556 12.2223H17.7778V9.11116H16V12.2223H14.2222C14.1043 12.2223 13.9913 12.1754 13.908 12.0921C13.8246 12.0087 13.7778 11.8957 13.7778 11.7778V8.22228C13.7778 8.14913 13.7958 8.0771 13.8303 8.0126C13.8648 7.94809 13.9147 7.8931 13.9756 7.8525L16.6422 6.07473V6.07473ZM24.224 8.72539C24.2911 8.68704 24.3671 8.66687 24.4444 8.66687C24.5218 8.66687 24.5977 8.68704 24.6649 8.72539L27.776 10.5032C27.844 10.542 27.9006 10.5982 27.9399 10.6659C27.9792 10.7337 28 10.8106 28 10.8889V15.3334C28 15.4512 27.9532 15.5643 27.8698 15.6476C27.7865 15.731 27.6734 15.7778 27.5556 15.7778H25.3333V12.2223H23.5556V15.7778H21.3333C21.2155 15.7778 21.1024 15.731 21.0191 15.6476C20.9357 15.5643 20.8889 15.4512 20.8889 15.3334V10.8889C20.8889 10.8106 20.9096 10.7337 20.949 10.6659C20.9883 10.5982 21.0449 10.542 21.1129 10.5032L24.224 8.72539ZM12.2458 15.8249L15.8013 14.0471C15.863 14.0163 15.931 14.0003 16 14.0003C16.069 14.0003 16.137 14.0163 16.1987 14.0471L19.7542 15.8249C19.828 15.8618 19.8901 15.9185 19.9335 15.9887C19.9769 16.0589 20 16.1397 20 16.2222V21.5556C20 21.6734 19.9532 21.7865 19.8698 21.8698C19.7865 21.9532 19.6734 22 19.5556 22H16.8889V18H15.1111V22H12.4444C12.3266 22 12.2135 21.9532 12.1302 21.8698C12.0468 21.7865 12 21.6734 12 21.5556V16.2222C12 16.1397 12.0231 16.0589 12.0665 15.9887C12.1099 15.9185 12.172 15.8618 12.2458 15.8249Z" fill="white"/>
</g>
<defs>
<filter id="filter0_d_47_188" x="0" y="0" width="89" height="38" filterUnits="userSpaceOnUse" color-interpolation-filters="sRGB">
<feFlood flood-opacity="0" result="BackgroundImageFix"/>
<feColorMatrix in="SourceAlpha" type="matrix" values="0 0 0 0 0 0 0 0 0 0 0 0 0 0 0 0 0 0 127 0" result="hardAlpha"/>
<feOffset dy="4"/>
<feGaussianBlur stdDeviation="2"/>
<feComposite in2="hardAlpha" operator="out"/>
<feColorMatrix type="matrix" values="0 0 0 0 0 0 0 0 0 0 0 0 0 0 0 0 0 0 0.1 0"/>
<feBlend mode="normal" in2="BackgroundImageFix" result="effect1_dropShadow_47_188"/>
<feBlend mode="normal" in="SourceGraphic" in2="effect1_dropShadow_47_188" result="shape"/>
</filter>
</defs>
</svg>
