<svg width="16" height="16" viewBox="0 0 16 16" fill="none" xmlns="http://www.w3.org/2000/svg">
<path d="M4.64222 0.074733C4.71526 0.0260048 4.80109 0 4.88889 0C4.97669 0 5.06252 0.0260048 5.13556 0.074733L7.80222 1.8525C7.86307 1.8931 7.91296 1.94809 7.94746 2.0126C7.98196 2.0771 8.00001 2.14913 8 2.22228V5.77782C8 5.89569 7.95318 6.00874 7.86983 6.09209C7.78648 6.17544 7.67343 6.22226 7.55556 6.22226H5.77778V3.11116H4V6.22226H2.22222C2.10435 6.22226 1.9913 6.17544 1.90795 6.09209C1.8246 6.00874 1.77778 5.89569 1.77778 5.77782V2.22228C1.77777 2.14913 1.79581 2.0771 1.83031 2.0126C1.86481 1.94809 1.9147 1.8931 1.97556 1.8525L4.64222 0.074733ZM12.224 2.72539C12.2911 2.68704 12.3671 2.66687 12.4444 2.66687C12.5218 2.66687 12.5977 2.68704 12.6649 2.72539L15.776 4.50316C15.844 4.54202 15.9006 4.59816 15.9399 4.66591C15.9792 4.73365 16 4.8106 16 4.88894V9.33336C16 9.45123 15.9532 9.56428 15.8698 9.64763C15.7865 9.73098 15.6734 9.7778 15.5556 9.7778H13.3333V6.22226H11.5556V9.7778H9.33333C9.21546 9.7778 9.10241 9.73098 9.01906 9.64763C8.93571 9.56428 8.88889 9.45123 8.88889 9.33336V4.88894C8.88891 4.8106 8.90965 4.73365 8.94898 4.66591C8.98832 4.59816 9.04487 4.54202 9.11289 4.50316L12.224 2.72539ZM0.245778 9.82492L3.80133 8.04714C3.86302 8.01632 3.93104 8.00027 4 8.00027C4.06896 8.00027 4.13698 8.01632 4.19867 8.04714L7.75422 9.82492C7.82804 9.8618 7.89012 9.91851 7.93353 9.98868C7.97694 10.0589 7.99996 10.1397 8 10.2222V15.5556C8 15.6734 7.95318 15.7865 7.86983 15.8698C7.78648 15.9532 7.67343 16 7.55556 16H4.88889V12H3.11111V16H0.444444C0.32657 16 0.213524 15.9532 0.130175 15.8698C0.0468253 15.7865 0 15.6734 0 15.5556V10.2222C4.40661e-05 10.1397 0.0230592 10.0589 0.0664677 9.98868C0.109876 9.91851 0.171964 9.8618 0.245778 9.82492Z" fill="white"/>
</svg>
