<svg width="23" height="21" viewBox="0 0 23 21" fill="none" xmlns="http://www.w3.org/2000/svg">
<path d="M9.545 5.48333C9.43846 5.59011 9.35388 5.71728 9.29615 5.85746C9.23842 5.99765 9.20869 6.14807 9.20869 6.3C9.20869 6.45193 9.23842 6.60235 9.29615 6.74253C9.35388 6.88272 9.43846 7.00989 9.545 7.11667L11.73 9.33333H1.15C0.5175 9.33333 0 9.85833 0 10.5C0 11.1417 0.5175 11.6667 1.15 11.6667H11.73L9.545 13.8833C9.43846 13.9901 9.35388 14.1173 9.29615 14.2575C9.23842 14.3977 9.20869 14.5481 9.20869 14.7C9.20869 14.8519 9.23842 15.0023 9.29615 15.1425C9.35388 15.2827 9.43846 15.4099 9.545 15.5167C9.9935 15.9717 10.7065 15.9717 11.155 15.5167L15.2835 11.3283C15.3901 11.2204 15.4747 11.0922 15.5324 10.9511C15.5901 10.8099 15.6198 10.6586 15.6198 10.5058C15.6198 10.353 15.5901 10.2017 15.5324 10.0606C15.4747 9.91947 15.3901 9.79127 15.2835 9.68333L11.155 5.48333C11.0497 5.37525 10.9244 5.28944 10.7862 5.23088C10.648 5.17231 10.4998 5.14215 10.35 5.14215C10.2002 5.14215 10.052 5.17231 9.91379 5.23088C9.7756 5.28944 9.65025 5.37525 9.545 5.48333ZM20.7 18.6667H12.65C12.0175 18.6667 11.5 19.1917 11.5 19.8333C11.5 20.475 12.0175 21 12.65 21H20.7C21.965 21 23 19.95 23 18.6667V2.33333C23 1.05 21.965 0 20.7 0H12.65C12.0175 0 11.5 0.525 11.5 1.16667C11.5 1.80833 12.0175 2.33333 12.65 2.33333H20.7V18.6667Z" fill="#FFFFFF"/>
</svg>
