<svg width="89" height="38" viewBox="0 0 89 38" fill="none" xmlns="http://www.w3.org/2000/svg">
<g filter="url(#filter0_d_50_49)">
<rect x="4" width="81" height="30" rx="10" fill="#3B81F6"/>
<path d="M34.39 12.6V13.31H40.47V12.6H34.39ZM34.73 15.51V16.23H40.18V15.51H34.73ZM34.13 18.74V19.46H40.62V18.74H34.13ZM37.04 12.81V19.17H37.8V12.81H37.04ZM35.74 11.11C36.5 11.56 37.47 12.24 37.93 12.7L38.46 12.1C37.97 11.65 36.99 11.01 36.23 10.58L35.74 11.11ZM33.76 10.63C33.18 12.15 32.2 13.64 31.19 14.59C31.33 14.77 31.54 15.16 31.61 15.33C32.72 14.22 33.79 12.54 34.47 10.85L33.76 10.63ZM32.72 13.21V19.78H33.44V12.51L33.43 12.5L32.72 13.21ZM45.48 10.91C45.41 12.24 45.41 17.05 41.33 19.13C41.56 19.3 41.81 19.53 41.94 19.72C46.08 17.47 46.23 12.48 46.31 10.91H45.48ZM46.28 11.11L45.56 11.18C45.63 12.1 45.91 17.69 50.15 19.72C50.27 19.51 50.5 19.26 50.72 19.09C46.6 17.2 46.31 11.89 46.28 11.11ZM55.55 12.25L55.56 13.06C56.65 13.18 58.59 13.18 59.66 13.06V12.25C58.67 12.4 56.64 12.44 55.55 12.25ZM55.94 16.33L55.22 16.26C55.11 16.74 55.06 17.1 55.06 17.43C55.06 18.37 55.81 18.93 57.48 18.93C58.52 18.93 59.36 18.85 59.98 18.72L59.96 17.88C59.16 18.07 58.38 18.15 57.49 18.15C56.12 18.15 55.8 17.7 55.8 17.24C55.8 16.97 55.85 16.69 55.94 16.33ZM53.65 11.48L52.76 11.41C52.75 11.63 52.72 11.88 52.69 12.11C52.57 12.94 52.24 14.65 52.24 16.12C52.24 17.48 52.41 18.63 52.61 19.34L53.32 19.29C53.31 19.18 53.3 19.04 53.29 18.94C53.29 18.82 53.31 18.63 53.34 18.49C53.43 18.01 53.8 16.96 54.05 16.25L53.63 15.92C53.46 16.33 53.23 16.93 53.06 17.38C53 16.89 52.97 16.47 52.97 15.99C52.97 14.86 53.28 13.08 53.47 12.15C53.51 11.97 53.59 11.65 53.65 11.48ZM61.96 12.7L62.02 13.45C62.39 13.46 62.82 13.47 63.19 13.47C64.41 13.48 65.72 13.26 66.7 12.99L66.68 12.25C65.53 12.63 64.27 12.76 63.19 12.76C62.76 12.76 62.33 12.74 61.96 12.7ZM65.51 11.07L64.63 10.98C64.6 11.68 64.38 12.56 64.16 13.19C63.75 14.37 62.82 16.15 61.93 17.19L62.7 17.59C63.53 16.47 64.45 14.65 64.93 13.21C65.17 12.5 65.38 11.56 65.51 11.07ZM67.87 14.16H67.08C67.12 15.26 67.23 17.05 67.23 17.81C67.23 18.35 66.95 18.79 66.12 18.79C65.34 18.79 64.95 18.47 64.95 18.01C64.95 17.55 65.45 17.21 66.19 17.21C67.66 17.21 68.81 18.1 69.58 18.8L70 18.12C69.18 17.41 67.89 16.57 66.21 16.57C65.09 16.57 64.22 17.15 64.22 18.07C64.22 19.07 65.11 19.51 66.21 19.51C67.45 19.51 67.96 18.86 67.96 18.06C67.96 17.4 67.87 15.88 67.85 15.23C67.84 14.87 67.84 14.57 67.87 14.16ZM69.87 14.42L70.32 13.76C69.84 13.4 68.71 12.75 67.98 12.44L67.58 13.04C68.24 13.35 69.33 13.96 69.87 14.42ZM73.38 11.64L73.4 12.46C73.62 12.43 73.84 12.42 74.07 12.4C74.59 12.37 76.59 12.29 77.12 12.26C76.62 12.71 75.36 13.76 74.8 14.22C74.23 14.71 72.94 15.79 72.11 16.47L72.69 17.05C73.95 15.76 74.85 15.06 76.51 15.06C77.82 15.06 78.76 15.79 78.76 16.78C78.76 18.03 77.69 18.73 75.99 18.73C75.2 18.73 74.65 18.44 74.65 17.95C74.65 17.6 75 17.32 75.46 17.32C76.26 17.32 76.75 17.93 76.81 18.78L77.53 18.66C77.46 17.65 76.79 16.71 75.46 16.71C74.54 16.71 73.92 17.33 73.92 18.01C73.92 18.85 74.75 19.44 76.11 19.44C78.23 19.44 79.56 18.39 79.56 16.78C79.56 15.43 78.37 14.44 76.71 14.44C76.26 14.44 75.78 14.49 75.32 14.64C76.1 14 77.46 12.83 77.95 12.45C78.14 12.3 78.34 12.17 78.52 12.05L78.06 11.46C77.95 11.5 77.81 11.52 77.51 11.55C76.98 11.6 74.61 11.67 74.08 11.67C73.88 11.67 73.6 11.66 73.38 11.64Z" fill="white"/>
<path d="M34.39 12.6V12.35H34.14V12.6H34.39ZM34.39 13.31H34.14V13.56H34.39V13.31ZM40.47 13.31V13.56H40.72V13.31H40.47ZM40.47 12.6H40.72V12.35H40.47V12.6ZM34.73 15.51V15.26H34.48V15.51H34.73ZM34.73 16.23H34.48V16.48H34.73V16.23ZM40.18 16.23V16.48H40.43V16.23H40.18ZM40.18 15.51H40.43V15.26H40.18V15.51ZM34.13 18.74V18.49H33.88V18.74H34.13ZM34.13 19.46H33.88V19.71H34.13V19.46ZM40.62 19.46V19.71H40.87V19.46H40.62ZM40.62 18.74H40.87V18.49H40.62V18.74ZM37.04 12.81V12.56H36.79V12.81H37.04ZM37.04 19.17H36.79V19.42H37.04V19.17ZM37.8 19.17V19.42H38.05V19.17H37.8ZM37.8 12.81H38.05V12.56H37.8V12.81ZM35.74 11.11L35.5564 10.9403L35.3464 11.1675L35.6126 11.3251L35.74 11.11ZM37.93 12.7L37.7532 12.8768L37.9413 13.0648L38.1174 12.8655L37.93 12.7ZM38.46 12.1L38.6474 12.2655L38.8097 12.0817L38.6291 11.9159L38.46 12.1ZM36.23 10.58L36.3531 10.3624L36.1808 10.2649L36.0464 10.4103L36.23 10.58ZM33.76 10.63L33.834 10.3912L33.61 10.3218L33.5264 10.5409L33.76 10.63ZM31.19 14.59L31.0187 14.4079L30.8529 14.5638L30.9927 14.7435L31.19 14.59ZM31.61 15.33L31.3788 15.4252L31.5216 15.7719L31.7868 15.5068L31.61 15.33ZM34.47 10.85L34.7019 10.9433L34.8032 10.6915L34.544 10.6112L34.47 10.85ZM32.72 13.21L32.5432 13.0332L32.47 13.1064V13.21H32.72ZM32.72 19.78H32.47V20.03H32.72V19.78ZM33.44 19.78V20.03H33.69V19.78H33.44ZM33.44 12.51H33.69V12.4064L33.6168 12.3332L33.44 12.51ZM33.43 12.5L33.6068 12.3232L33.43 12.1464L33.2532 12.3232L33.43 12.5ZM34.14 12.6V13.31H34.64V12.6H34.14ZM34.39 13.56H40.47V13.06H34.39V13.56ZM40.72 13.31V12.6H40.22V13.31H40.72ZM40.47 12.35H34.39V12.85H40.47V12.35ZM34.48 15.51V16.23H34.98V15.51H34.48ZM34.73 16.48H40.18V15.98H34.73V16.48ZM40.43 16.23V15.51H39.93V16.23H40.43ZM40.18 15.26H34.73V15.76H40.18V15.26ZM33.88 18.74V19.46H34.38V18.74H33.88ZM34.13 19.71H40.62V19.21H34.13V19.71ZM40.87 19.46V18.74H40.37V19.46H40.87ZM40.62 18.49H34.13V18.99H40.62V18.49ZM36.79 12.81V19.17H37.29V12.81H36.79ZM37.04 19.42H37.8V18.92H37.04V19.42ZM38.05 19.17V12.81H37.55V19.17H38.05ZM37.8 12.56H37.04V13.06H37.8V12.56ZM35.6126 11.3251C36.3669 11.7717 37.3155 12.4391 37.7532 12.8768L38.1068 12.5232C37.6245 12.0409 36.6331 11.3483 35.8674 10.8949L35.6126 11.3251ZM38.1174 12.8655L38.6474 12.2655L38.2726 11.9345L37.7426 12.5345L38.1174 12.8655ZM38.6291 11.9159C38.1175 11.446 37.1173 10.7948 36.3531 10.3624L36.1069 10.7976C36.8627 11.2252 37.8225 11.854 38.2909 12.2841L38.6291 11.9159ZM36.0464 10.4103L35.5564 10.9403L35.9236 11.2797L36.4136 10.7497L36.0464 10.4103ZM33.5264 10.5409C32.9583 12.0298 31.9981 13.4867 31.0187 14.4079L31.3613 14.7721C32.4019 13.7933 33.4017 12.2702 33.9936 10.7191L33.5264 10.5409ZM30.9927 14.7435C31.1155 14.9014 31.3151 15.2704 31.3788 15.4252L31.8412 15.2348C31.7649 15.0496 31.5445 14.6386 31.3873 14.4365L30.9927 14.7435ZM31.7868 15.5068C32.9243 14.3692 34.0115 12.6593 34.7019 10.9433L34.2381 10.7567C33.5685 12.4207 32.5157 14.0708 31.4332 15.1532L31.7868 15.5068ZM34.544 10.6112L33.834 10.3912L33.686 10.8688L34.396 11.0888L34.544 10.6112ZM32.47 13.21V19.78H32.97V13.21H32.47ZM32.72 20.03H33.44V19.53H32.72V20.03ZM33.69 19.78V12.51H33.19V19.78H33.69ZM33.6168 12.3332L33.6068 12.3232L33.2532 12.6768L33.2632 12.6868L33.6168 12.3332ZM33.2532 12.3232L32.5432 13.0332L32.8968 13.3868L33.6068 12.6768L33.2532 12.3232ZM45.48 10.91V10.66H45.2428L45.2303 10.8969L45.48 10.91ZM41.33 19.13L41.2165 18.9073L40.8564 19.0908L41.1814 19.331L41.33 19.13ZM41.94 19.72L41.7337 19.8612L41.8611 20.0474L42.0594 19.9397L41.94 19.72ZM46.31 10.91L46.5597 10.9227L46.5731 10.66H46.31V10.91ZM46.28 11.11L46.5298 11.1004L46.5196 10.8355L46.2558 10.8612L46.28 11.11ZM45.56 11.18L45.5358 10.9312L45.2921 10.9549L45.3107 11.199L45.56 11.18ZM50.15 19.72L50.042 19.9455L50.2517 20.0459L50.3671 19.844L50.15 19.72ZM50.72 19.09L50.8729 19.2878L51.1999 19.0351L50.8242 18.8628L50.72 19.09ZM45.2303 10.8969C45.1949 11.571 45.1776 13.0709 44.6705 14.6629C44.1651 16.2497 43.1793 17.9066 41.2165 18.9073L41.4435 19.3527C43.5607 18.2734 44.6149 16.4853 45.147 14.8146C45.6774 13.1491 45.6951 11.579 45.7297 10.9231L45.2303 10.8969ZM41.1814 19.331C41.4018 19.4939 41.6265 19.7045 41.7337 19.8612L42.1463 19.5788C41.9935 19.3555 41.7182 19.1061 41.4786 18.929L41.1814 19.331ZM42.0594 19.9397C44.2025 18.7749 45.3072 16.9021 45.8851 15.1378C46.4618 13.3769 46.5198 11.7052 46.5597 10.9227L46.0603 10.8973C46.0202 11.6848 45.9632 13.2931 45.4099 14.9822C44.8578 16.6679 43.8175 18.4151 41.8206 19.5003L42.0594 19.9397ZM46.31 10.66H45.48V11.16H46.31V10.66ZM46.2558 10.8612L45.5358 10.9312L45.5842 11.4288L46.3042 11.3588L46.2558 10.8612ZM45.3107 11.199C45.3456 11.6576 45.4344 13.3149 46.0549 15.1152C46.6751 16.9147 47.8381 18.8903 50.042 19.9455L50.258 19.4945C48.2219 18.5197 47.1249 16.6853 46.5276 14.9523C45.9306 13.2201 45.8444 11.6224 45.8093 11.161L45.3107 11.199ZM50.3671 19.844C50.4673 19.6687 50.6727 19.4425 50.8729 19.2878L50.5671 18.8922C50.3273 19.0775 50.0727 19.3513 49.9329 19.596L50.3671 19.844ZM50.8242 18.8628C48.8486 17.9565 47.7806 16.2264 47.2018 14.5999C46.623 12.9738 46.5444 11.4807 46.5298 11.1004L46.0302 11.1196C46.0456 11.5193 46.127 13.0712 46.7307 14.7676C47.3344 16.4636 48.4714 18.3335 50.6158 19.3172L50.8242 18.8628ZM55.55 12.25L55.5929 12.0037L55.2963 11.952L55.3 12.2531L55.55 12.25ZM55.56 13.06L55.31 13.0631L55.3127 13.2843L55.5326 13.3085L55.56 13.06ZM59.66 13.06L59.6879 13.3084L59.91 13.2835V13.06H59.66ZM59.66 12.25H59.91V11.9593L59.6225 12.0028L59.66 12.25ZM55.94 16.33L56.1825 16.3906L56.2529 16.1092L55.9642 16.0812L55.94 16.33ZM55.22 16.26L55.2442 16.0112L55.0254 15.9899L54.9763 16.2042L55.22 16.26ZM59.98 18.72L60.0313 18.9647L60.2349 18.922L60.2299 18.714L59.98 18.72ZM59.96 17.88L60.2099 17.874L60.2026 17.5654L59.9022 17.6368L59.96 17.88ZM53.65 11.48L53.8857 11.5632L53.9941 11.2563L53.6696 11.2308L53.65 11.48ZM52.76 11.41L52.7796 11.1608L52.522 11.1405L52.5103 11.3986L52.76 11.41ZM52.69 12.11L52.9375 12.1458L52.9379 12.1423L52.69 12.11ZM52.61 19.34L52.3694 19.4078L52.4245 19.6037L52.6276 19.5894L52.61 19.34ZM53.32 19.29L53.3376 19.5394L53.5921 19.5215L53.569 19.2674L53.32 19.29ZM53.29 18.94H53.04V18.9525L53.0412 18.9649L53.29 18.94ZM53.34 18.49L53.5845 18.5424L53.5857 18.5361L53.34 18.49ZM54.05 16.25L54.2858 16.333L54.3453 16.1641L54.2045 16.0534L54.05 16.25ZM53.63 15.92L53.7845 15.7234L53.5253 15.5198L53.3991 15.8242L53.63 15.92ZM53.06 17.38L52.8119 17.4104L53.2939 17.4684L53.06 17.38ZM53.47 12.15L53.2259 12.0958L53.2251 12.1L53.47 12.15ZM55.3 12.2531L55.31 13.0631L55.81 13.0569L55.8 12.2469L55.3 12.2531ZM55.5326 13.3085C56.6407 13.4305 58.5992 13.4305 59.6879 13.3084L59.6321 12.8116C58.5808 12.9295 56.6593 12.9295 55.5874 12.8115L55.5326 13.3085ZM59.91 13.06V12.25H59.41V13.06H59.91ZM59.6225 12.0028C58.653 12.1497 56.6508 12.1881 55.5929 12.0037L55.5071 12.4963C56.6292 12.6919 58.687 12.6503 59.6975 12.4972L59.6225 12.0028ZM55.9642 16.0812L55.2442 16.0112L55.1958 16.5088L55.9158 16.5788L55.9642 16.0812ZM54.9763 16.2042C54.8641 16.6939 54.81 17.0741 54.81 17.43H55.31C55.31 17.1259 55.3559 16.7861 55.4637 16.3158L54.9763 16.2042ZM54.81 17.43C54.81 17.9784 55.0352 18.4352 55.5075 18.7421C55.9626 19.0379 56.6244 19.18 57.48 19.18V18.68C56.6656 18.68 56.1174 18.5421 55.78 18.3229C55.4598 18.1148 55.31 17.8216 55.31 17.43H54.81ZM57.48 19.18C58.5312 19.18 59.3894 19.0993 60.0313 18.9647L59.9287 18.4753C59.3306 18.6007 58.5088 18.68 57.48 18.68V19.18ZM60.2299 18.714L60.2099 17.874L59.7101 17.886L59.7301 18.726L60.2299 18.714ZM59.9022 17.6368C59.1241 17.8216 58.3638 17.9 57.49 17.9V18.4C58.3962 18.4 59.1959 18.3184 60.0178 18.1232L59.9022 17.6368ZM57.49 17.9C56.8238 17.9 56.4613 17.789 56.2713 17.6604C56.1007 17.545 56.05 17.4025 56.05 17.24H55.55C55.55 17.5375 55.6593 17.85 55.9912 18.0746C56.3037 18.286 56.7862 18.4 57.49 18.4V17.9ZM56.05 17.24C56.05 17.0007 56.0942 16.7442 56.1825 16.3906L55.6975 16.2694C55.6059 16.6358 55.55 16.9393 55.55 17.24H56.05ZM53.6696 11.2308L52.7796 11.1608L52.7404 11.6592L53.6304 11.7292L53.6696 11.2308ZM52.5103 11.3986C52.5008 11.607 52.4721 11.8477 52.4421 12.0777L52.9379 12.1423C52.9679 11.9123 52.9992 11.653 53.0097 11.4214L52.5103 11.3986ZM52.4426 12.0742C52.3253 12.8857 51.99 14.6262 51.99 16.12H52.49C52.49 14.6738 52.8147 12.9943 52.9374 12.1458L52.4426 12.0742ZM51.99 16.12C51.99 17.4978 52.1619 18.6713 52.3694 19.4078L52.8506 19.2722C52.6581 18.5887 52.49 17.4622 52.49 16.12H51.99ZM52.6276 19.5894L53.3376 19.5394L53.3024 19.0406L52.5924 19.0906L52.6276 19.5894ZM53.569 19.2674C53.5599 19.1681 53.5486 19.0135 53.5388 18.9151L53.0412 18.9649C53.0514 19.0665 53.0601 19.1919 53.071 19.3126L53.569 19.2674ZM53.54 18.94C53.54 18.8387 53.5579 18.6663 53.5844 18.5424L53.0955 18.4376C53.0621 18.5937 53.04 18.8013 53.04 18.94H53.54ZM53.5857 18.5361C53.6712 18.0802 54.0317 17.0547 54.2858 16.333L53.8142 16.167C53.5683 16.8653 53.1888 17.9398 53.0943 18.4439L53.5857 18.5361ZM54.2045 16.0534L53.7845 15.7234L53.4755 16.1166L53.8955 16.4466L54.2045 16.0534ZM53.3991 15.8242C53.2274 16.2383 52.9961 16.8417 52.8261 17.2916L53.2939 17.4684C53.4639 17.0183 53.6926 16.4217 53.8609 16.0158L53.3991 15.8242ZM53.3081 17.3496C53.2492 16.8679 53.22 16.4582 53.22 15.99H52.72C52.72 16.4818 52.7508 16.9121 52.8119 17.4104L53.3081 17.3496ZM53.22 15.99C53.22 14.888 53.5249 13.1304 53.7149 12.2L53.2251 12.1C53.0351 13.0296 52.72 14.832 52.72 15.99H53.22ZM53.714 12.2042C53.7538 12.0255 53.8311 11.718 53.8857 11.5632L53.4143 11.3968C53.3489 11.582 53.2662 11.9145 53.226 12.0958L53.714 12.2042ZM61.96 12.7L61.9869 12.4514L61.6867 12.419L61.7108 12.7199L61.96 12.7ZM62.02 13.45L61.7708 13.4699L61.7887 13.6938L62.0132 13.6999L62.02 13.45ZM63.19 13.47L63.1921 13.22H63.19V13.47ZM66.7 12.99L66.7664 13.231L66.9552 13.179L66.9499 12.9832L66.7 12.99ZM66.68 12.25L66.9299 12.2432L66.9208 11.9071L66.6016 12.0126L66.68 12.25ZM65.51 11.07L65.7516 11.1341L65.8267 10.8511L65.5354 10.8213L65.51 11.07ZM64.63 10.98L64.6554 10.7313L64.3916 10.7043L64.3802 10.9693L64.63 10.98ZM64.16 13.19L63.924 13.1076L63.9238 13.1079L64.16 13.19ZM61.93 17.19L61.7401 17.0275L61.5353 17.2667L61.8148 17.4119L61.93 17.19ZM62.7 17.59L62.5848 17.8119L62.7739 17.9101L62.9009 17.7388L62.7 17.59ZM64.93 13.21L64.6932 13.1299L64.6928 13.1309L64.93 13.21ZM67.87 14.16L68.1193 14.1782L68.139 13.91H67.87V14.16ZM67.08 14.16V13.91H66.8207L66.8302 14.1691L67.08 14.16ZM69.58 18.8L69.4118 18.985L69.6345 19.1874L69.7927 18.9314L69.58 18.8ZM70 18.12L70.2127 18.2514L70.3245 18.0703L70.1636 17.931L70 18.12ZM67.85 15.23L67.6001 15.2369L67.6001 15.2377L67.85 15.23ZM69.87 14.42L69.7079 14.6103L69.9198 14.7908L70.0766 14.5608L69.87 14.42ZM70.32 13.76L70.5266 13.9008L70.6612 13.7034L70.47 13.56L70.32 13.76ZM67.98 12.44L68.0777 12.2099L67.887 12.1289L67.772 12.3013L67.98 12.44ZM67.58 13.04L67.372 12.9013L67.211 13.1429L67.4737 13.2663L67.58 13.04ZM61.7108 12.7199L61.7708 13.4699L62.2692 13.4301L62.2092 12.6801L61.7108 12.7199ZM62.0132 13.6999C62.3834 13.7099 62.8163 13.72 63.19 13.72V13.22C62.8237 13.22 62.3966 13.2101 62.0268 13.2001L62.0132 13.6999ZM63.188 13.72C64.4355 13.7302 65.7688 13.5059 66.7664 13.231L66.6336 12.749C65.6712 13.0141 64.3845 13.2298 63.1921 13.22L63.188 13.72ZM66.9499 12.9832L66.9299 12.2432L66.4301 12.2568L66.4501 12.9968L66.9499 12.9832ZM66.6016 12.0126C65.4844 12.3818 64.2527 12.51 63.19 12.51V13.01C64.2873 13.01 65.5756 12.8782 66.7584 12.4874L66.6016 12.0126ZM63.19 12.51C62.767 12.51 62.3462 12.4903 61.9869 12.4514L61.9331 12.9486C62.3138 12.9897 62.753 13.01 63.19 13.01V12.51ZM65.5354 10.8213L64.6554 10.7313L64.6046 11.2287L65.4846 11.3187L65.5354 10.8213ZM64.3802 10.9693C64.3517 11.6357 64.1396 12.4901 63.924 13.1076L64.396 13.2724C64.6204 12.6299 64.8483 11.7243 64.8798 10.9907L64.3802 10.9693ZM63.9238 13.1079C63.5216 14.2655 62.6054 16.0162 61.7401 17.0275L62.1199 17.3525C63.0346 16.2838 63.9784 14.4745 64.3962 13.2721L63.9238 13.1079ZM61.8148 17.4119L62.5848 17.8119L62.8152 17.3681L62.0452 16.9681L61.8148 17.4119ZM62.9009 17.7388C63.7485 16.5951 64.6799 14.7509 65.1672 13.2891L64.6928 13.1309C64.2201 14.5491 63.3115 16.3449 62.4991 17.4412L62.9009 17.7388ZM65.1668 13.2901C65.4103 12.5699 65.626 11.6077 65.7516 11.1341L65.2684 11.0059C65.134 11.5123 64.9297 12.4301 64.6932 13.1299L65.1668 13.2901ZM67.87 13.91H67.08V14.41H67.87V13.91ZM66.8302 14.1691C66.8707 15.2839 66.98 17.0549 66.98 17.81H67.48C67.48 17.0451 67.3693 15.2361 67.3298 14.1509L66.8302 14.1691ZM66.98 17.81C66.98 18.0396 66.9207 18.2121 66.8076 18.3276C66.6957 18.4419 66.4925 18.54 66.12 18.54V19.04C66.5775 19.04 66.9293 18.9181 67.1649 18.6774C67.3993 18.4379 67.48 18.1204 67.48 17.81H66.98ZM66.12 18.54C65.7594 18.54 65.5243 18.4653 65.3866 18.3682C65.2589 18.2781 65.2 18.1598 65.2 18.01H64.7C64.7 18.3202 64.8361 18.5919 65.0984 18.7768C65.3507 18.9547 65.7006 19.04 66.12 19.04V18.54ZM65.2 18.01C65.2 17.882 65.2664 17.7535 65.4295 17.6466C65.5963 17.5374 65.8551 17.46 66.19 17.46V16.96C65.7849 16.96 65.4237 17.0526 65.1555 17.2284C64.8836 17.4065 64.7 17.678 64.7 18.01H65.2ZM66.19 17.46C67.559 17.46 68.6474 18.2901 69.4118 18.985L69.7482 18.615C68.9726 17.9099 67.761 16.96 66.19 16.96V17.46ZM69.7927 18.9314L70.2127 18.2514L69.7873 17.9886L69.3673 18.6686L69.7927 18.9314ZM70.1636 17.931C69.323 17.2031 67.9763 16.32 66.21 16.32V16.82C67.8037 16.82 69.037 17.6169 69.8364 18.309L70.1636 17.931ZM66.21 16.32C65.6098 16.32 65.0574 16.475 64.648 16.7728C64.233 17.0746 63.97 17.5214 63.97 18.07H64.47C64.47 17.6986 64.642 17.3954 64.942 17.1772C65.2476 16.955 65.6902 16.82 66.21 16.82V16.32ZM63.97 18.07C63.97 18.6579 64.238 19.0951 64.6658 19.3743C65.0809 19.6453 65.6322 19.76 66.21 19.76V19.26C65.6878 19.26 65.2441 19.1547 64.9392 18.9557C64.647 18.7649 64.47 18.4821 64.47 18.07H63.97ZM66.21 19.76C66.872 19.76 67.378 19.5861 67.7202 19.2681C68.0641 18.9486 68.21 18.5137 68.21 18.06H67.71C67.71 18.4063 67.6009 18.6964 67.3798 18.9019C67.157 19.1089 66.788 19.26 66.21 19.26V19.76ZM68.21 18.06C68.21 17.3974 68.1193 15.8546 68.0999 15.2223L67.6001 15.2377C67.6207 15.9054 67.71 17.4026 67.71 18.06H68.21ZM68.0999 15.2231C68.0901 14.8686 68.0901 14.5774 68.1193 14.1782L67.6207 14.1418C67.5899 14.5626 67.5899 14.8714 67.6001 15.2369L68.0999 15.2231ZM70.0766 14.5608L70.5266 13.9008L70.1134 13.6192L69.6634 14.2792L70.0766 14.5608ZM70.47 13.56C69.9722 13.1867 68.8243 12.5269 68.0777 12.2099L67.8823 12.6701C68.5957 12.9731 69.7078 13.6133 70.17 13.96L70.47 13.56ZM67.772 12.3013L67.372 12.9013L67.788 13.1787L68.188 12.5787L67.772 12.3013ZM67.4737 13.2663C68.1277 13.5734 69.1936 14.1722 69.7079 14.6103L70.0321 14.2297C69.4664 13.7478 68.3523 13.1266 67.6863 12.8137L67.4737 13.2663ZM73.38 11.64L73.4026 11.391L73.1232 11.3656L73.1301 11.6461L73.38 11.64ZM73.4 12.46L73.1501 12.4661L73.1569 12.7455L73.4338 12.7077L73.4 12.46ZM74.07 12.4L74.0556 12.1503L74.0483 12.1509L74.07 12.4ZM77.12 12.26L77.2872 12.4458L77.8157 11.9702L77.1059 12.0104L77.12 12.26ZM74.8 14.22L74.6413 14.0268L74.637 14.0304L74.8 14.22ZM72.11 16.47L71.9516 16.2766L71.738 16.4516L71.9332 16.6468L72.11 16.47ZM72.69 17.05L72.5132 17.2268L72.6921 17.4056L72.8688 17.2247L72.69 17.05ZM76.81 18.78L76.5606 18.7976L76.58 19.0718L76.8511 19.0266L76.81 18.78ZM77.53 18.66L77.5711 18.9066L77.7951 18.8693L77.7794 18.6427L77.53 18.66ZM75.32 14.64L75.1614 14.4467L75.3975 14.8777L75.32 14.64ZM77.95 12.45L78.1032 12.6476L78.1049 12.6462L77.95 12.45ZM78.52 12.05L78.6587 12.258L78.8827 12.1086L78.7172 11.8963L78.52 12.05ZM78.06 11.46L78.2572 11.3063L78.1454 11.1629L77.9746 11.2251L78.06 11.46ZM77.51 11.55L77.5335 11.7989L77.5349 11.7988L77.51 11.55ZM73.1301 11.6461L73.1501 12.4661L73.6499 12.4539L73.6299 11.6339L73.1301 11.6461ZM73.4338 12.7077C73.6462 12.6787 73.8476 12.6703 74.0917 12.6491L74.0483 12.1509C73.8324 12.1697 73.5938 12.1813 73.3662 12.2123L73.4338 12.7077ZM74.0844 12.6496C74.3421 12.6347 74.9696 12.6073 75.6021 12.5798C76.2322 12.5523 76.867 12.5247 77.1341 12.5096L77.1059 12.0104C76.843 12.0253 76.2128 12.0527 75.5804 12.0802C74.9504 12.1077 74.3179 12.1353 74.0556 12.1504L74.0844 12.6496ZM76.9528 12.0742C76.4576 12.5198 75.202 13.5663 74.6413 14.0268L74.9587 14.4132C75.518 13.9537 76.7824 12.9002 77.2872 12.4458L76.9528 12.0742ZM74.637 14.0304C74.0689 14.5188 72.7805 15.5975 71.9516 16.2766L72.2684 16.6634C73.0995 15.9825 74.3911 14.9012 74.963 14.4096L74.637 14.0304ZM71.9332 16.6468L72.5132 17.2268L72.8668 16.8732L72.2868 16.2932L71.9332 16.6468ZM72.8688 17.2247C73.4971 16.5814 74.0165 16.1061 74.5738 15.7885C75.1231 15.4754 75.7199 15.31 76.51 15.31V14.81C75.6401 14.81 74.9569 14.9946 74.3262 15.354C73.7035 15.7089 73.1429 16.2286 72.5112 16.8753L72.8688 17.2247ZM76.51 15.31C77.7473 15.31 78.51 15.9854 78.51 16.78H79.01C79.01 15.5946 77.8927 14.81 76.51 14.81V15.31ZM78.51 16.78C78.51 17.3226 78.283 17.7333 77.8705 18.018C77.4469 18.3103 76.8106 18.48 75.99 18.48V18.98C76.8694 18.98 77.6181 18.7997 78.1545 18.4295C78.702 18.0517 79.01 17.4874 79.01 16.78H78.51ZM75.99 18.48C75.6207 18.48 75.3329 18.4115 75.1469 18.3062C74.9682 18.205 74.9 18.0833 74.9 17.95H74.4C74.4 18.3067 74.6068 18.575 74.9006 18.7413C75.1871 18.9035 75.5693 18.98 75.99 18.98V18.48ZM74.9 17.95C74.9 17.7912 75.0781 17.57 75.46 17.57V17.07C74.9219 17.07 74.4 17.4088 74.4 17.95H74.9ZM75.46 17.57C75.7907 17.57 76.0445 17.6935 76.2256 17.8973C76.4109 18.1057 76.5335 18.414 76.5606 18.7976L77.0594 18.7624C77.0265 18.296 76.8741 17.8743 76.5994 17.5652C76.3205 17.2515 75.9293 17.07 75.46 17.07V17.57ZM76.8511 19.0266L77.5711 18.9066L77.4889 18.4134L76.7689 18.5334L76.8511 19.0266ZM77.7794 18.6427C77.7411 18.0902 77.538 17.5446 77.1489 17.1342C76.7559 16.7197 76.1887 16.46 75.46 16.46V16.96C76.0613 16.96 76.4941 17.1703 76.7861 17.4783C77.082 17.7904 77.2489 18.2198 77.2806 18.6773L77.7794 18.6427ZM75.46 16.46C74.4304 16.46 73.67 17.1651 73.67 18.01H74.17C74.17 17.4949 74.6496 16.96 75.46 16.96V16.46ZM73.67 18.01C73.67 18.5239 73.9283 18.955 74.366 19.2478C74.7969 19.536 75.3976 19.69 76.11 19.69V19.19C75.4624 19.19 74.9681 19.049 74.644 18.8322C74.3267 18.62 74.17 18.3361 74.17 18.01H73.67ZM76.11 19.69C77.2084 19.69 78.1301 19.4182 78.7833 18.9112C79.4427 18.3994 79.81 17.6611 79.81 16.78H79.31C79.31 17.5089 79.0123 18.1006 78.4767 18.5163C77.9349 18.9368 77.1316 19.19 76.11 19.19V19.69ZM79.81 16.78C79.81 15.2489 78.4607 14.19 76.71 14.19V14.69C78.2793 14.69 79.31 15.6111 79.31 16.78H79.81ZM76.71 14.19C76.2427 14.19 75.7348 14.2418 75.2425 14.4023L75.3975 14.8777C75.8252 14.7382 76.2773 14.69 76.71 14.69V14.19ZM75.4786 14.8333C76.2702 14.1837 77.6153 13.026 78.1032 12.6476L77.7968 12.2524C77.3047 12.634 75.9298 13.8163 75.1614 14.4467L75.4786 14.8333ZM78.1049 12.6462C78.2851 12.5039 78.475 12.3805 78.6587 12.258L78.3813 11.842C78.205 11.9595 77.9949 12.0961 77.7951 12.2538L78.1049 12.6462ZM78.7172 11.8963L78.2572 11.3063L77.8628 11.6137L78.3228 12.2037L78.7172 11.8963ZM77.9746 11.2251C77.8994 11.2524 77.7924 11.2705 77.4851 11.3012L77.5349 11.7988C77.8276 11.7695 78.0005 11.7476 78.1454 11.6949L77.9746 11.2251ZM77.4865 11.3011C76.9683 11.35 74.6077 11.42 74.08 11.42V11.92C74.6124 11.92 76.9916 11.85 77.5335 11.7989L77.4865 11.3011ZM74.08 11.42C73.886 11.42 73.6137 11.4102 73.4026 11.391L73.3574 11.889C73.5863 11.9098 73.874 11.92 74.08 11.92V11.42Z" fill="white"/>
<path d="M16 14C16.7956 14 17.5587 13.6839 18.1213 13.1213C18.6839 12.5587 19 11.7956 19 11C19 10.2044 18.6839 9.44129 18.1213 8.87868C17.5587 8.31607 16.7956 8 16 8C15.2044 8 14.4413 8.31607 13.8787 8.87868C13.3161 9.44129 13 10.2044 13 11C13 11.7956 13.3161 12.5587 13.8787 13.1213C14.4413 13.6839 15.2044 14 16 14ZM16 16C17.5913 16 19.1174 16.6321 20.2426 17.7574C21.3679 18.8826 22 20.4087 22 22H10C10 20.4087 10.6321 18.8826 11.7574 17.7574C12.8826 16.6321 14.4087 16 16 16ZM24 12C24 11.7348 23.8946 11.4804 23.7071 11.2929C23.5196 11.1054 23.2652 11 23 11C22.7348 11 22.4804 11.1054 22.2929 11.2929C22.1054 11.4804 22 11.7348 22 12V13H21C20.7348 13 20.4804 13.1054 20.2929 13.2929C20.1054 13.4804 20 13.7348 20 14C20 14.2652 20.1054 14.5196 20.2929 14.7071C20.4804 14.8946 20.7348 15 21 15H22V16C22 16.2652 22.1054 16.5196 22.2929 16.7071C22.4804 16.8946 22.7348 17 23 17C23.2652 17 23.5196 16.8946 23.7071 16.7071C23.8946 16.5196 24 16.2652 24 16V15H25C25.2652 15 25.5196 14.8946 25.7071 14.7071C25.8946 14.5196 26 14.2652 26 14C26 13.7348 25.8946 13.4804 25.7071 13.2929C25.5196 13.1054 25.2652 13 25 13H24V12Z" fill="white"/>
</g>
<defs>
<filter id="filter0_d_50_49" x="0" y="0" width="89" height="38" filterUnits="userSpaceOnUse" color-interpolation-filters="sRGB">
<feFlood flood-opacity="0" result="BackgroundImageFix"/>
<feColorMatrix in="SourceAlpha" type="matrix" values="0 0 0 0 0 0 0 0 0 0 0 0 0 0 0 0 0 0 127 0" result="hardAlpha"/>
<feOffset dy="4"/>
<feGaussianBlur stdDeviation="2"/>
<feComposite in2="hardAlpha" operator="out"/>
<feColorMatrix type="matrix" values="0 0 0 0 0 0 0 0 0 0 0 0 0 0 0 0 0 0 0.1 0"/>
<feBlend mode="normal" in2="BackgroundImageFix" result="effect1_dropShadow_50_49"/>
<feBlend mode="normal" in="SourceGraphic" in2="effect1_dropShadow_50_49" result="shape"/>
</filter>
</defs>
</svg>
