<svg width="89" height="38" viewBox="0 0 89 38" fill="none" xmlns="http://www.w3.org/2000/svg">
<g filter="url(#filter0_d_47_188)">
<rect x="4" width="81" height="30" rx="10" fill="#3B81F6"/>
<path d="M41.82 12.74V13.46H46.65V12.74H41.82ZM44.81 10.61V18.78C44.81 18.96 44.75 19.02 44.56 19.02C44.36 19.03 43.74 19.03 43.05 19.01C43.17 19.24 43.29 19.59 43.33 19.8C44.19 19.81 44.78 19.78 45.11 19.66C45.44 19.53 45.57 19.3 45.57 18.77V10.61H44.81ZM42.04 14.79C42.57 15.55 43.11 16.58 43.31 17.23L43.98 16.88C43.78 16.23 43.21 15.23 42.66 14.49L42.04 14.79ZM37.52 12.75V13.47H41.53V12.75H37.52ZM39.29 10.6V19.79H40.02V10.6H39.29ZM39.25 13.19C38.9 14.66 38.09 16.36 37.28 17.26C37.41 17.44 37.61 17.74 37.69 17.95C38.54 16.95 39.36 15 39.76 13.37L39.25 13.19ZM39.97 14.33L39.57 14.72C39.92 15.12 40.8 16.2 41.09 16.68L41.58 16.05C41.34 15.77 40.28 14.61 39.97 14.33ZM51.55 12.25L51.56 13.06C52.65 13.18 54.59 13.18 55.66 13.06V12.25C54.67 12.4 52.64 12.44 51.55 12.25ZM51.94 16.33L51.22 16.26C51.11 16.74 51.06 17.1 51.06 17.43C51.06 18.37 51.81 18.93 53.48 18.93C54.52 18.93 55.36 18.85 55.98 18.72L55.96 17.88C55.16 18.07 54.38 18.15 53.49 18.15C52.12 18.15 51.8 17.7 51.8 17.24C51.8 16.97 51.85 16.69 51.94 16.33ZM49.65 11.48L48.76 11.41C48.75 11.63 48.72 11.88 48.69 12.11C48.57 12.94 48.24 14.65 48.24 16.12C48.24 17.48 48.41 18.63 48.61 19.34L49.32 19.29C49.31 19.18 49.3 19.04 49.29 18.94C49.29 18.82 49.31 18.63 49.34 18.49C49.43 18.01 49.8 16.96 50.05 16.25L49.63 15.92C49.46 16.33 49.23 16.93 49.06 17.38C49 16.89 48.97 16.47 48.97 15.99C48.97 14.86 49.28 13.08 49.47 12.15C49.51 11.97 49.59 11.65 49.65 11.48ZM59.27 11.21V11.97H62.1V11.21H59.27ZM61.72 11.21C61.72 13.09 62.05 17.35 66.05 19.77C66.19 19.59 66.49 19.27 66.66 19.14C62.71 16.8 62.49 13 62.49 11.21H61.72ZM61.44 13.17C60.83 16 59.58 18.02 57.36 19.18C57.56 19.32 57.9 19.63 58.04 19.79C60.25 18.49 61.57 16.38 62.29 13.33L61.44 13.17ZM69.38 11.64L69.4 12.46C69.62 12.43 69.84 12.42 70.07 12.4C70.59 12.37 72.59 12.29 73.12 12.26C72.62 12.71 71.36 13.76 70.8 14.22C70.23 14.71 68.94 15.79 68.11 16.47L68.69 17.05C69.95 15.76 70.85 15.06 72.51 15.06C73.82 15.06 74.76 15.79 74.76 16.78C74.76 18.03 73.69 18.73 71.99 18.73C71.2 18.73 70.65 18.44 70.65 17.95C70.65 17.6 71 17.32 71.46 17.32C72.26 17.32 72.75 17.93 72.81 18.78L73.53 18.66C73.46 17.65 72.79 16.71 71.46 16.71C70.54 16.71 69.92 17.33 69.92 18.01C69.92 18.85 70.75 19.44 72.11 19.44C74.23 19.44 75.56 18.39 75.56 16.78C75.56 15.43 74.37 14.44 72.71 14.44C72.26 14.44 71.78 14.49 71.32 14.64C72.1 14 73.46 12.83 73.95 12.45C74.14 12.3 74.34 12.17 74.52 12.05L74.06 11.46C73.95 11.5 73.81 11.52 73.51 11.55C72.98 11.6 70.61 11.67 70.08 11.67C69.88 11.67 69.6 11.66 69.38 11.64Z" fill="white"/>
<path d="M41.82 12.74V12.49H41.57V12.74H41.82ZM41.82 13.46H41.57V13.71H41.82V13.46ZM46.65 13.46V13.71H46.9V13.46H46.65ZM46.65 12.74H46.9V12.49H46.65V12.74ZM44.81 10.61V10.36H44.56V10.61H44.81ZM44.56 19.02V18.7697L44.5475 18.7703L44.56 19.02ZM43.05 19.01L43.0572 18.7601L42.6312 18.7478L42.8284 19.1256L43.05 19.01ZM43.33 19.8L43.0844 19.8468L43.1227 20.0476L43.3271 20.05L43.33 19.8ZM45.11 19.66L45.1955 19.895L45.2016 19.8926L45.11 19.66ZM45.57 10.61H45.82V10.36H45.57V10.61ZM42.04 14.79L41.9311 14.565L41.6673 14.6926L41.8349 14.933L42.04 14.79ZM43.31 17.23L43.0711 17.3035L43.1594 17.5907L43.4258 17.4516L43.31 17.23ZM43.98 16.88L44.0958 17.1016L44.2801 17.0053L44.2189 16.8065L43.98 16.88ZM42.66 14.49L42.8606 14.3409L42.7373 14.1749L42.5511 14.265L42.66 14.49ZM37.52 12.75V12.5H37.27V12.75H37.52ZM37.52 13.47H37.27V13.72H37.52V13.47ZM41.53 13.47V13.72H41.78V13.47H41.53ZM41.53 12.75H41.78V12.5H41.53V12.75ZM39.29 10.6V10.35H39.04V10.6H39.29ZM39.29 19.79H39.04V20.04H39.29V19.79ZM40.02 19.79V20.04H40.27V19.79H40.02ZM40.02 10.6H40.27V10.35H40.02V10.6ZM39.25 13.19L39.3332 12.9543L39.0712 12.8618L39.0068 13.1321L39.25 13.19ZM37.28 17.26L37.0942 17.0928L36.9592 17.2428L37.0773 17.4064L37.28 17.26ZM37.69 17.95L37.4564 18.039L37.6068 18.4339L37.8805 18.1119L37.69 17.95ZM39.76 13.37L40.0028 13.4296L40.0568 13.2096L39.8432 13.1343L39.76 13.37ZM39.97 14.33L40.1376 14.1445L39.9635 13.9872L39.7955 14.151L39.97 14.33ZM39.57 14.72L39.3955 14.541L39.2259 14.7064L39.3819 14.8846L39.57 14.72ZM41.09 16.68L40.876 16.8093L41.0641 17.1205L41.2873 16.8335L41.09 16.68ZM41.58 16.05L41.7773 16.2035L41.9027 16.0423L41.7698 15.8873L41.58 16.05ZM41.57 12.74V13.46H42.07V12.74H41.57ZM41.82 13.71H46.65V13.21H41.82V13.71ZM46.9 13.46V12.74H46.4V13.46H46.9ZM46.65 12.49H41.82V12.99H46.65V12.49ZM44.56 10.61V18.78H45.06V10.61H44.56ZM44.56 18.78C44.56 18.7958 44.5593 18.8073 44.5585 18.8155C44.5576 18.8237 44.5567 18.8269 44.5568 18.8265C44.5569 18.826 44.5584 18.8209 44.5626 18.8134C44.567 18.8054 44.5735 18.7964 44.5824 18.7878C44.5912 18.7793 44.6 18.7735 44.6069 18.7699C44.6135 18.7665 44.6172 18.7656 44.6161 18.7659C44.6149 18.7662 44.6101 18.7673 44.6003 18.7683C44.5906 18.7693 44.5774 18.77 44.56 18.77V19.27C44.6661 19.27 44.8167 19.2569 44.9301 19.1472C45.0461 19.0349 45.06 18.8836 45.06 18.78H44.56ZM44.5475 18.7703C44.3582 18.7798 43.7467 18.7801 43.0572 18.7601L43.0428 19.2599C43.7333 19.2799 44.3618 19.2802 44.5725 19.2697L44.5475 18.7703ZM42.8284 19.1256C42.9375 19.3349 43.0492 19.6617 43.0844 19.8468L43.5756 19.7532C43.5308 19.5183 43.4025 19.1451 43.2716 18.8944L42.8284 19.1256ZM43.3271 20.05C43.7595 20.055 44.1301 20.0501 44.4366 20.0281C44.7397 20.0064 44.9974 19.967 45.1954 19.8949L45.0246 19.4251C44.8926 19.473 44.6903 19.5086 44.4009 19.5294C44.1149 19.5499 43.7605 19.555 43.3329 19.55L43.3271 20.05ZM45.2016 19.8926C45.4073 19.8116 45.5766 19.6872 45.6849 19.4815C45.7869 19.2879 45.82 19.0493 45.82 18.77H45.32C45.32 19.0207 45.2881 19.1621 45.2426 19.2485C45.2034 19.3228 45.1427 19.3784 45.0184 19.4274L45.2016 19.8926ZM45.82 18.77V10.61H45.32V18.77H45.82ZM45.57 10.36H44.81V10.86H45.57V10.36ZM41.8349 14.933C42.3558 15.6799 42.8811 16.6863 43.0711 17.3035L43.5489 17.1565C43.3389 16.4737 42.7842 15.4201 42.2451 14.647L41.8349 14.933ZM43.4258 17.4516L44.0958 17.1016L43.8642 16.6584L43.1942 17.0084L43.4258 17.4516ZM44.2189 16.8065C44.0071 16.1179 43.4187 15.0917 42.8606 14.3409L42.4594 14.6391C43.0013 15.3683 43.5529 16.3421 43.7411 16.9535L44.2189 16.8065ZM42.5511 14.265L41.9311 14.565L42.1489 15.015L42.7689 14.715L42.5511 14.265ZM37.27 12.75V13.47H37.77V12.75H37.27ZM37.52 13.72H41.53V13.22H37.52V13.72ZM41.78 13.47V12.75H41.28V13.47H41.78ZM41.53 12.5H37.52V13H41.53V12.5ZM39.04 10.6V19.79H39.54V10.6H39.04ZM39.29 20.04H40.02V19.54H39.29V20.04ZM40.27 19.79V10.6H39.77V19.79H40.27ZM40.02 10.35H39.29V10.85H40.02V10.35ZM39.0068 13.1321C38.6636 14.5737 37.8689 16.232 37.0942 17.0928L37.4658 17.4272C38.3112 16.488 39.1364 14.7463 39.4932 13.2479L39.0068 13.1321ZM37.0773 17.4064C37.2083 17.5878 37.3895 17.8635 37.4564 18.039L37.9236 17.861C37.8305 17.6165 37.6117 17.2922 37.4827 17.1136L37.0773 17.4064ZM37.8805 18.1119C38.7666 17.0695 39.5986 15.0765 40.0028 13.4296L39.5172 13.3104C39.1214 14.9235 38.3134 16.8305 37.4995 17.7881L37.8805 18.1119ZM39.8432 13.1343L39.3332 12.9543L39.1668 13.4257L39.6768 13.6057L39.8432 13.1343ZM39.7955 14.151L39.3955 14.541L39.7445 14.899L40.1445 14.509L39.7955 14.151ZM39.3819 14.8846C39.7321 15.2849 40.5986 16.3502 40.876 16.8093L41.304 16.5507C41.0014 16.0498 40.1079 14.9551 39.7581 14.5554L39.3819 14.8846ZM41.2873 16.8335L41.7773 16.2035L41.3827 15.8965L40.8927 16.5265L41.2873 16.8335ZM41.7698 15.8873C41.5293 15.6067 40.4604 14.4361 40.1376 14.1445L39.8024 14.5155C40.0996 14.7839 41.1507 15.9333 41.3902 16.2127L41.7698 15.8873ZM51.55 12.25L51.5929 12.0037L51.2963 11.952L51.3 12.2531L51.55 12.25ZM51.56 13.06L51.31 13.0631L51.3127 13.2843L51.5326 13.3085L51.56 13.06ZM55.66 13.06L55.6879 13.3084L55.91 13.2835V13.06H55.66ZM55.66 12.25H55.91V11.9593L55.6225 12.0028L55.66 12.25ZM51.94 16.33L52.1825 16.3906L52.2529 16.1092L51.9642 16.0812L51.94 16.33ZM51.22 16.26L51.2442 16.0112L51.0254 15.9899L50.9763 16.2042L51.22 16.26ZM55.98 18.72L56.0313 18.9647L56.2349 18.922L56.2299 18.714L55.98 18.72ZM55.96 17.88L56.2099 17.874L56.2026 17.5654L55.9022 17.6368L55.96 17.88ZM49.65 11.48L49.8857 11.5632L49.9941 11.2563L49.6696 11.2308L49.65 11.48ZM48.76 11.41L48.7796 11.1608L48.522 11.1405L48.5103 11.3986L48.76 11.41ZM48.69 12.11L48.9375 12.1458L48.9379 12.1423L48.69 12.11ZM48.61 19.34L48.3694 19.4078L48.4245 19.6037L48.6276 19.5894L48.61 19.34ZM49.32 19.29L49.3376 19.5394L49.5921 19.5215L49.569 19.2674L49.32 19.29ZM49.29 18.94H49.04V18.9525L49.0412 18.9649L49.29 18.94ZM49.34 18.49L49.5845 18.5424L49.5857 18.5361L49.34 18.49ZM50.05 16.25L50.2858 16.333L50.3453 16.1641L50.2045 16.0534L50.05 16.25ZM49.63 15.92L49.7845 15.7234L49.5253 15.5198L49.3991 15.8242L49.63 15.92ZM49.06 17.38L48.8119 17.4104L49.2939 17.4684L49.06 17.38ZM49.47 12.15L49.2259 12.0958L49.2251 12.1L49.47 12.15ZM51.3 12.2531L51.31 13.0631L51.81 13.0569L51.8 12.2469L51.3 12.2531ZM51.5326 13.3085C52.6407 13.4305 54.5992 13.4305 55.6879 13.3084L55.6321 12.8116C54.5808 12.9295 52.6593 12.9295 51.5874 12.8115L51.5326 13.3085ZM55.91 13.06V12.25H55.41V13.06H55.91ZM55.6225 12.0028C54.653 12.1497 52.6508 12.1881 51.5929 12.0037L51.5071 12.4963C52.6292 12.6919 54.687 12.6503 55.6975 12.4972L55.6225 12.0028ZM51.9642 16.0812L51.2442 16.0112L51.1958 16.5088L51.9158 16.5788L51.9642 16.0812ZM50.9763 16.2042C50.8641 16.6939 50.81 17.0741 50.81 17.43H51.31C51.31 17.1259 51.3559 16.7861 51.4637 16.3158L50.9763 16.2042ZM50.81 17.43C50.81 17.9784 51.0352 18.4352 51.5075 18.7421C51.9626 19.0379 52.6244 19.18 53.48 19.18V18.68C52.6656 18.68 52.1174 18.5421 51.78 18.3229C51.4598 18.1148 51.31 17.8216 51.31 17.43H50.81ZM53.48 19.18C54.5312 19.18 55.3894 19.0993 56.0313 18.9647L55.9287 18.4753C55.3306 18.6007 54.5088 18.68 53.48 18.68V19.18ZM56.2299 18.714L56.2099 17.874L55.7101 17.886L55.7301 18.726L56.2299 18.714ZM55.9022 17.6368C55.1241 17.8216 54.3638 17.9 53.49 17.9V18.4C54.3962 18.4 55.1959 18.3184 56.0178 18.1232L55.9022 17.6368ZM53.49 17.9C52.8238 17.9 52.4613 17.789 52.2713 17.6604C52.1007 17.545 52.05 17.4025 52.05 17.24H51.55C51.55 17.5375 51.6593 17.85 51.9912 18.0746C52.3037 18.286 52.7862 18.4 53.49 18.4V17.9ZM52.05 17.24C52.05 17.0007 52.0941 16.7442 52.1825 16.3906L51.6975 16.2694C51.6059 16.6358 51.55 16.9393 51.55 17.24H52.05ZM49.6696 11.2308L48.7796 11.1608L48.7404 11.6592L49.6304 11.7292L49.6696 11.2308ZM48.5103 11.3986C48.5008 11.607 48.4721 11.8477 48.4421 12.0777L48.9379 12.1423C48.9679 11.9123 48.9992 11.653 49.0097 11.4214L48.5103 11.3986ZM48.4426 12.0742C48.3253 12.8857 47.99 14.6262 47.99 16.12H48.49C48.49 14.6738 48.8147 12.9943 48.9374 12.1458L48.4426 12.0742ZM47.99 16.12C47.99 17.4978 48.1619 18.6713 48.3694 19.4078L48.8506 19.2722C48.6581 18.5887 48.49 17.4622 48.49 16.12H47.99ZM48.6276 19.5894L49.3376 19.5394L49.3024 19.0406L48.5924 19.0906L48.6276 19.5894ZM49.569 19.2674C49.5599 19.1681 49.5486 19.0135 49.5388 18.9151L49.0412 18.9649C49.0514 19.0665 49.0601 19.1919 49.071 19.3126L49.569 19.2674ZM49.54 18.94C49.54 18.8387 49.5579 18.6663 49.5845 18.5424L49.0955 18.4376C49.0621 18.5937 49.04 18.8013 49.04 18.94H49.54ZM49.5857 18.5361C49.6712 18.0802 50.0317 17.0547 50.2858 16.333L49.8142 16.167C49.5683 16.8653 49.1888 17.9398 49.0943 18.4439L49.5857 18.5361ZM50.2045 16.0534L49.7845 15.7234L49.4755 16.1166L49.8955 16.4466L50.2045 16.0534ZM49.3991 15.8242C49.2274 16.2383 48.9961 16.8417 48.8261 17.2916L49.2939 17.4684C49.4639 17.0183 49.6926 16.4217 49.8609 16.0158L49.3991 15.8242ZM49.3081 17.3496C49.2492 16.8679 49.22 16.4582 49.22 15.99H48.72C48.72 16.4818 48.7508 16.9121 48.8119 17.4104L49.3081 17.3496ZM49.22 15.99C49.22 14.888 49.5249 13.1304 49.7149 12.2L49.2251 12.1C49.0351 13.0296 48.72 14.832 48.72 15.99H49.22ZM49.714 12.2042C49.7538 12.0255 49.8311 11.718 49.8857 11.5632L49.4143 11.3968C49.3489 11.582 49.2662 11.9145 49.226 12.0958L49.714 12.2042ZM59.27 11.21V10.96H59.02V11.21H59.27ZM59.27 11.97H59.02V12.22H59.27V11.97ZM62.1 11.97V12.22H62.35V11.97H62.1ZM62.1 11.21H62.35V10.96H62.1V11.21ZM61.72 11.21V10.96H61.47V11.21H61.72ZM66.05 19.77L65.9206 19.9839L66.1108 20.099L66.2473 19.9235L66.05 19.77ZM66.66 19.14L66.8119 19.3386L67.106 19.1136L66.7874 18.9249L66.66 19.14ZM62.49 11.21H62.74V10.96H62.49V11.21ZM61.44 13.17L61.4862 12.9243L61.2469 12.8793L61.1956 13.1173L61.44 13.17ZM57.36 19.18L57.2442 18.9584L56.8797 19.1489L57.2166 19.3848L57.36 19.18ZM58.04 19.79L57.8519 19.9546L57.9882 20.1105L58.1668 20.0055L58.04 19.79ZM62.29 13.33L62.5333 13.3874L62.5934 13.1327L62.3362 13.0843L62.29 13.33ZM59.02 11.21V11.97H59.52V11.21H59.02ZM59.27 12.22H62.1V11.72H59.27V12.22ZM62.35 11.97V11.21H61.85V11.97H62.35ZM62.1 10.96H59.27V11.46H62.1V10.96ZM61.47 11.21C61.47 13.1056 61.7999 17.4909 65.9206 19.9839L66.1794 19.5561C62.3001 17.2091 61.97 13.0744 61.97 11.21H61.47ZM66.2473 19.9235C66.38 19.7529 66.6651 19.4509 66.8119 19.3386L66.5081 18.9414C66.315 19.0891 66 19.4271 65.8527 19.6165L66.2473 19.9235ZM66.7874 18.9249C62.9586 16.6567 62.74 12.9813 62.74 11.21H62.24C62.24 13.0187 62.4614 16.9433 66.5326 19.3551L66.7874 18.9249ZM62.49 10.96H61.72V11.46H62.49V10.96ZM61.1956 13.1173C60.5959 15.8996 59.3787 17.8431 57.2442 18.9584L57.4758 19.4016C59.7813 18.1969 61.0641 16.1004 61.6844 13.2227L61.1956 13.1173ZM57.2166 19.3848C57.3995 19.5128 57.7245 19.8091 57.8519 19.9546L58.2281 19.6254C58.0755 19.4509 57.7205 19.1272 57.5034 18.9752L57.2166 19.3848ZM58.1668 20.0055C60.4527 18.6608 61.8029 16.4815 62.5333 13.3874L62.0467 13.2726C61.3371 16.2785 60.0473 18.3192 57.9132 19.5745L58.1668 20.0055ZM62.3362 13.0843L61.4862 12.9243L61.3938 13.4157L62.2438 13.5757L62.3362 13.0843ZM69.38 11.64L69.4026 11.391L69.1232 11.3656L69.1301 11.6461L69.38 11.64ZM69.4 12.46L69.1501 12.4661L69.1569 12.7455L69.4338 12.7077L69.4 12.46ZM70.07 12.4L70.0556 12.1503L70.0483 12.1509L70.07 12.4ZM73.12 12.26L73.2872 12.4458L73.8157 11.9702L73.1059 12.0104L73.12 12.26ZM70.8 14.22L70.6413 14.0268L70.637 14.0304L70.8 14.22ZM68.11 16.47L67.9516 16.2766L67.738 16.4516L67.9332 16.6468L68.11 16.47ZM68.69 17.05L68.5132 17.2268L68.6921 17.4056L68.8688 17.2247L68.69 17.05ZM72.81 18.78L72.5606 18.7976L72.58 19.0718L72.8511 19.0266L72.81 18.78ZM73.53 18.66L73.5711 18.9066L73.7951 18.8693L73.7794 18.6427L73.53 18.66ZM71.32 14.64L71.1614 14.4467L71.3975 14.8777L71.32 14.64ZM73.95 12.45L74.1032 12.6476L74.1049 12.6462L73.95 12.45ZM74.52 12.05L74.6587 12.258L74.8827 12.1086L74.7172 11.8963L74.52 12.05ZM74.06 11.46L74.2572 11.3063L74.1454 11.1629L73.9746 11.2251L74.06 11.46ZM73.51 11.55L73.5335 11.7989L73.5349 11.7988L73.51 11.55ZM69.1301 11.6461L69.1501 12.4661L69.6499 12.4539L69.6299 11.6339L69.1301 11.6461ZM69.4338 12.7077C69.6462 12.6787 69.8476 12.6703 70.0917 12.6491L70.0483 12.1509C69.8324 12.1697 69.5938 12.1813 69.3662 12.2123L69.4338 12.7077ZM70.0844 12.6496C70.3421 12.6347 70.9696 12.6073 71.6021 12.5798C72.2322 12.5523 72.867 12.5247 73.1341 12.5096L73.1059 12.0104C72.843 12.0253 72.2128 12.0527 71.5804 12.0802C70.9504 12.1077 70.3179 12.1353 70.0556 12.1504L70.0844 12.6496ZM72.9528 12.0742C72.4576 12.5198 71.202 13.5663 70.6413 14.0268L70.9587 14.4132C71.518 13.9537 72.7824 12.9002 73.2872 12.4458L72.9528 12.0742ZM70.637 14.0304C70.0689 14.5188 68.7805 15.5975 67.9516 16.2766L68.2684 16.6634C69.0995 15.9825 70.3911 14.9012 70.963 14.4096L70.637 14.0304ZM67.9332 16.6468L68.5132 17.2268L68.8668 16.8732L68.2868 16.2932L67.9332 16.6468ZM68.8688 17.2247C69.4971 16.5814 70.0165 16.1061 70.5738 15.7885C71.1231 15.4754 71.7199 15.31 72.51 15.31V14.81C71.6401 14.81 70.9569 14.9946 70.3262 15.354C69.7035 15.7089 69.1429 16.2286 68.5112 16.8753L68.8688 17.2247ZM72.51 15.31C73.7473 15.31 74.51 15.9854 74.51 16.78H75.01C75.01 15.5946 73.8927 14.81 72.51 14.81V15.31ZM74.51 16.78C74.51 17.3226 74.283 17.7333 73.8705 18.018C73.4469 18.3103 72.8106 18.48 71.99 18.48V18.98C72.8694 18.98 73.6181 18.7997 74.1545 18.4295C74.702 18.0517 75.01 17.4874 75.01 16.78H74.51ZM71.99 18.48C71.6207 18.48 71.3329 18.4115 71.1469 18.3062C70.9682 18.205 70.9 18.0833 70.9 17.95H70.4C70.4 18.3067 70.6068 18.575 70.9006 18.7413C71.1871 18.9035 71.5693 18.98 71.99 18.98V18.48ZM70.9 17.95C70.9 17.7912 71.0781 17.57 71.46 17.57V17.07C70.9219 17.07 70.4 17.4088 70.4 17.95H70.9ZM71.46 17.57C71.7907 17.57 72.0445 17.6935 72.2256 17.8973C72.4109 18.1057 72.5335 18.414 72.5606 18.7976L73.0594 18.7624C73.0265 18.296 72.8741 17.8743 72.5994 17.5652C72.3205 17.2515 71.9293 17.07 71.46 17.07V17.57ZM72.8511 19.0266L73.5711 18.9066L73.4889 18.4134L72.7689 18.5334L72.8511 19.0266ZM73.7794 18.6427C73.7411 18.0902 73.538 17.5446 73.1489 17.1342C72.7559 16.7197 72.1887 16.46 71.46 16.46V16.96C72.0613 16.96 72.4941 17.1703 72.7861 17.4783C73.082 17.7904 73.2489 18.2198 73.2806 18.6773L73.7794 18.6427ZM71.46 16.46C70.4304 16.46 69.67 17.1651 69.67 18.01H70.17C70.17 17.4949 70.6496 16.96 71.46 16.96V16.46ZM69.67 18.01C69.67 18.5239 69.9283 18.955 70.366 19.2478C70.7969 19.536 71.3976 19.69 72.11 19.69V19.19C71.4624 19.19 70.9681 19.049 70.644 18.8322C70.3267 18.62 70.17 18.3361 70.17 18.01H69.67ZM72.11 19.69C73.2084 19.69 74.1301 19.4182 74.7833 18.9112C75.4427 18.3994 75.81 17.6611 75.81 16.78H75.31C75.31 17.5089 75.0123 18.1006 74.4767 18.5163C73.9349 18.9368 73.1316 19.19 72.11 19.19V19.69ZM75.81 16.78C75.81 15.2489 74.4607 14.19 72.71 14.19V14.69C74.2793 14.69 75.31 15.6111 75.31 16.78H75.81ZM72.71 14.19C72.2427 14.19 71.7348 14.2418 71.2425 14.4023L71.3975 14.8777C71.8252 14.7382 72.2773 14.69 72.71 14.69V14.19ZM71.4786 14.8333C72.2702 14.1837 73.6153 13.026 74.1032 12.6476L73.7968 12.2524C73.3047 12.634 71.9298 13.8163 71.1614 14.4467L71.4786 14.8333ZM74.1049 12.6462C74.2851 12.5039 74.475 12.3805 74.6587 12.258L74.3813 11.842C74.205 11.9595 73.9949 12.0961 73.7951 12.2538L74.1049 12.6462ZM74.7172 11.8963L74.2572 11.3063L73.8628 11.6137L74.3228 12.2037L74.7172 11.8963ZM73.9746 11.2251C73.8994 11.2524 73.7924 11.2705 73.4851 11.3012L73.5349 11.7988C73.8276 11.7695 74.0005 11.7476 74.1454 11.6949L73.9746 11.2251ZM73.4865 11.3011C72.9683 11.35 70.6077 11.42 70.08 11.42V11.92C70.6124 11.92 72.9916 11.85 73.5335 11.7989L73.4865 11.3011ZM70.08 11.42C69.886 11.42 69.6137 11.4102 69.4026 11.391L69.3574 11.889C69.5863 11.9098 69.874 11.92 70.08 11.92V11.42Z" fill="white"/>
<path d="M18.47 11.1778C18.3866 11.2591 18.3204 11.356 18.2752 11.4628C18.2301 11.5696 18.2068 11.6842 18.2068 11.8C18.2068 11.9158 18.2301 12.0304 18.2752 12.1372C18.3204 12.244 18.3866 12.3409 18.47 12.4222L20.18 14.1111H11.9C11.405 14.1111 11 14.5111 11 15C11 15.4889 11.405 15.8889 11.9 15.8889H20.18L18.47 17.5778C18.3866 17.6591 18.3204 17.756 18.2752 17.8628C18.2301 17.9696 18.2068 18.0842 18.2068 18.2C18.2068 18.3158 18.2301 18.4304 18.2752 18.5372C18.3204 18.644 18.3866 18.7409 18.47 18.8222C18.821 19.1689 19.379 19.1689 19.73 18.8222L22.961 15.6311C23.0444 15.5489 23.1106 15.4512 23.1558 15.3437C23.201 15.2361 23.2242 15.1209 23.2242 15.0044C23.2242 14.888 23.201 14.7728 23.1558 14.6652C23.1106 14.5577 23.0444 14.46 22.961 14.3778L19.73 11.1778C19.6476 11.0954 19.5495 11.0301 19.4414 10.9854C19.3332 10.9408 19.2172 10.9178 19.1 10.9178C18.9828 10.9178 18.8668 10.9408 18.7586 10.9854C18.6505 11.0301 18.5524 11.0954 18.47 11.1778ZM27.2 21.2222H20.9C20.405 21.2222 20 21.6222 20 22.1111C20 22.6 20.405 23 20.9 23H27.2C28.19 23 29 22.2 29 21.2222V8.77778C29 7.8 28.19 7 27.2 7H20.9C20.405 7 20 7.4 20 7.88889C20 8.37778 20.405 8.77778 20.9 8.77778H27.2V21.2222Z" fill="white"/>
</g>
<defs>
<filter id="filter0_d_47_188" x="0" y="0" width="89" height="38" filterUnits="userSpaceOnUse" color-interpolation-filters="sRGB">
<feFlood flood-opacity="0" result="BackgroundImageFix"/>
<feColorMatrix in="SourceAlpha" type="matrix" values="0 0 0 0 0 0 0 0 0 0 0 0 0 0 0 0 0 0 127 0" result="hardAlpha"/>
<feOffset dy="4"/>
<feGaussianBlur stdDeviation="2"/>
<feComposite in2="hardAlpha" operator="out"/>
<feColorMatrix type="matrix" values="0 0 0 0 0 0 0 0 0 0 0 0 0 0 0 0 0 0 0.1 0"/>
<feBlend mode="normal" in2="BackgroundImageFix" result="effect1_dropShadow_47_188"/>
<feBlend mode="normal" in="SourceGraphic" in2="effect1_dropShadow_47_188" result="shape"/>
</filter>
</defs>
</svg>
